<svg width="20" height="20" viewBox="0 0 20 20" fill="none" xmlns="http://www.w3.org/2000/svg">
<g clip-path="url(#clip0_1620_3047)">
<path d="M7.5 15.001H12.5" stroke="white" stroke-width="1.5" stroke-linecap="round" stroke-linejoin="round"/>
<path d="M8.33203 18.3344H11.6654" stroke="white" stroke-width="1.5" stroke-linecap="round" stroke-linejoin="round"/>
<path d="M12.575 11.6676C12.725 10.851 13.1167 10.2176 13.75 9.58431C14.1524 9.21389 14.4718 8.76249 14.6872 8.25979C14.9027 7.75709 15.0093 7.21448 15 6.66764C15 5.34156 14.4732 4.06979 13.5355 3.13211C12.5979 2.19442 11.3261 1.66764 10 1.66764C8.67392 1.66764 7.40215 2.19442 6.46447 3.13211C5.52678 4.06979 5 5.34156 5 6.66764C5 7.50097 5.19167 8.52597 6.25 9.58431C6.85338 10.136 7.265 10.8659 7.425 11.6676" stroke="white" stroke-width="1.5" stroke-linecap="round" stroke-linejoin="round"/>
</g>
<defs>
<clipPath id="clip0_1620_3047">
<rect width="20" height="20" fill="white" transform="translate(0 0.000976562)"/>
</clipPath>
</defs>
</svg>
