<svg width="20" height="20" viewBox="0 0 20 20" fill="none" xmlns="http://www.w3.org/2000/svg">
<g clip-path="url(#clip0_1620_3108)">
<path d="M17.4234 7.36726L7.13172 1.85892C6.89946 1.73562 6.64051 1.67114 6.37755 1.67114C6.11459 1.67114 5.85564 1.73562 5.62338 1.85892L2.58172 3.44226C2.30746 3.59255 2.07802 3.81295 1.91683 4.08094C1.75563 4.34893 1.66846 4.6549 1.66422 4.96761C1.65999 5.28031 1.73883 5.58854 1.89271 5.8608C2.04658 6.13306 2.26997 6.35959 2.54005 6.51726L12.7234 12.2923C12.9707 12.4294 13.2489 12.5014 13.5317 12.5014C13.8145 12.5014 14.0927 12.4294 14.34 12.2923L17.4984 10.4256C17.7629 10.264 17.9802 10.0356 18.1285 9.76334C18.2769 9.49113 18.3509 9.18469 18.3433 8.87478C18.3357 8.56488 18.2467 8.26243 18.0853 7.99782C17.9238 7.7332 17.6955 7.51574 17.4234 7.36726Z" stroke="white" stroke-width="1.5" stroke-linecap="round" stroke-linejoin="round"/>
<path d="M2.57674 7.36726L12.8684 1.85892C13.1007 1.73562 13.3596 1.67114 13.6226 1.67114C13.8855 1.67114 14.1445 1.73562 14.3767 1.85892L17.4184 3.44226C17.6949 3.58875 17.9275 3.80604 18.0924 4.07191C18.2574 4.33778 18.3488 4.64268 18.3572 4.95544C18.3657 5.26821 18.291 5.57761 18.1407 5.85202C17.9904 6.12643 17.7699 6.356 17.5017 6.51726L7.27674 12.2923C7.0294 12.4294 6.75123 12.5014 6.46841 12.5014C6.18558 12.5014 5.90741 12.4294 5.66007 12.2923L2.50174 10.4256C2.23722 10.264 2.01989 10.0356 1.87157 9.76334C1.72326 9.49113 1.64918 9.18469 1.65678 8.87478C1.66438 8.56488 1.75339 8.26243 1.91487 7.99782C2.07635 7.7332 2.30462 7.51574 2.57674 7.36726Z" stroke="white" stroke-width="1.5" stroke-linecap="round" stroke-linejoin="round"/>
<path d="M10 18.3338V10.8338" stroke="white" stroke-width="1.5" stroke-linecap="round" stroke-linejoin="round"/>
<path d="M16.6654 11.2505V14.0588C16.6657 14.3734 16.5796 14.6819 16.4165 14.9509C16.2533 15.2198 16.0195 15.4388 15.7404 15.5838L10.7404 18.1505C10.5113 18.2695 10.2569 18.3317 9.9987 18.3317C9.74051 18.3317 9.48613 18.2695 9.25703 18.1505L4.25703 15.5838C3.97794 15.4388 3.74406 15.2198 3.58093 14.9509C3.41781 14.6819 3.33171 14.3734 3.33203 14.0588V11.2505" stroke="white" stroke-width="1.5" stroke-linecap="round" stroke-linejoin="round"/>
</g>
<defs>
<clipPath id="clip0_1620_3108">
<rect width="20" height="20" fill="white" transform="translate(0 0.000488281)"/>
</clipPath>
</defs>
</svg>
