<svg width="20" height="20" viewBox="0 0 20 20" fill="none" xmlns="http://www.w3.org/2000/svg">
<g clip-path="url(#clip0_1620_3005)">
<path d="M16.1982 6.54268C16.1574 6.81102 16.2474 7.08268 16.4391 7.27435L17.7457 8.58102C18.1374 8.97268 18.3341 9.48685 18.3341 10.001C18.3341 10.5152 18.1382 11.0285 17.7457 11.421L16.4032 12.7635C16.313 12.8537 16.2029 12.9214 16.0818 12.9613C15.9607 13.0013 15.8319 13.0123 15.7057 12.9935C15.3141 12.9352 15.0374 12.5935 14.8991 12.2227C14.7777 11.895 14.5759 11.6031 14.3122 11.3738C14.0485 11.1445 13.7314 10.9852 13.39 10.9106C13.0486 10.8359 12.694 10.8483 12.3586 10.9465C12.0233 11.0448 11.718 11.2258 11.4709 11.4729C11.2238 11.72 11.0429 12.0252 10.9446 12.3606C10.8463 12.6959 10.834 13.0506 10.9086 13.3919C10.9833 13.7333 11.1426 14.0504 11.3719 14.3141C11.6011 14.5778 11.8931 14.7796 12.2207 14.901C12.5924 15.0393 12.9332 15.3152 12.9916 15.7077C13.0104 15.8338 12.9994 15.9626 12.9595 16.0838C12.9195 16.2049 12.8518 16.315 12.7616 16.4052L11.4199 17.7469C11.2336 17.9338 11.0121 18.0821 10.7683 18.1832C10.5244 18.2843 10.263 18.3363 9.99906 18.336C9.73528 18.3364 9.47404 18.2845 9.23034 18.1836C8.98665 18.0826 8.76531 17.9345 8.57906 17.7477L7.2724 16.441C7.17795 16.3464 7.06264 16.2753 6.93571 16.2333C6.80879 16.1913 6.67379 16.1797 6.54156 16.1994C6.13073 16.261 5.84156 16.6194 5.69156 17.006C5.56584 17.3287 5.36164 17.615 5.09743 17.839C4.83323 18.0629 4.51737 18.2174 4.17842 18.2886C3.83947 18.3598 3.48812 18.3453 3.15616 18.2465C2.82421 18.1478 2.52211 17.9678 2.27721 17.7229C2.03231 17.478 1.85233 17.1759 1.75355 16.8439C1.65477 16.512 1.64031 16.1606 1.71147 15.8217C1.78263 15.4827 1.93718 15.1668 2.16112 14.9026C2.38507 14.6384 2.67135 14.4342 2.99406 14.3085C3.38073 14.1585 3.73906 13.8694 3.7999 13.4585C3.81966 13.3264 3.80817 13.1914 3.76634 13.0645C3.72452 12.9376 3.65353 12.8222 3.55906 12.7277L2.2524 11.421C2.0656 11.2348 1.91747 11.0134 1.8165 10.7697C1.71553 10.526 1.66373 10.2648 1.66406 10.001C1.66406 9.48685 1.86073 8.97268 2.2524 8.58102L3.52406 7.30935C3.72406 7.10935 4.00823 7.01518 4.28823 7.05685C4.7174 7.12102 5.01906 7.49685 5.1824 7.89852C5.31215 8.21664 5.51855 8.49774 5.78324 8.71677C6.04793 8.93581 6.36268 9.08599 6.69946 9.15393C7.03624 9.22187 7.3846 9.20547 7.7135 9.10619C8.04241 9.0069 8.34166 8.82782 8.58459 8.58488C8.82753 8.34194 9.00662 8.0427 9.1059 7.71379C9.20518 7.38488 9.22159 7.03653 9.15364 6.69975C9.0857 6.36297 8.93552 6.04822 8.71649 5.78353C8.49745 5.51884 8.21635 5.31243 7.89823 5.18268C7.49656 5.01935 7.12073 4.71768 7.05656 4.28852C7.0149 4.00852 7.10823 3.72518 7.30906 3.52435L8.5799 2.25352C8.76612 2.06697 8.98735 1.91905 9.23089 1.81823C9.47443 1.71741 9.73548 1.66568 9.99906 1.66602C10.5132 1.66602 11.0274 1.86268 11.4191 2.25435L12.7257 3.56102C12.9174 3.75268 13.1891 3.84268 13.4566 3.80268C13.8674 3.74102 14.1566 3.38268 14.3066 2.99602C14.4323 2.6733 14.6365 2.38702 14.9007 2.16308C15.1649 1.93913 15.4808 1.78459 15.8197 1.71342C16.1587 1.64226 16.51 1.65672 16.842 1.7555C17.1739 1.85428 17.476 2.03426 17.7209 2.27917C17.9658 2.52407 18.1458 2.82616 18.2446 3.15812C18.3434 3.49007 18.3578 3.84142 18.2867 4.18037C18.2155 4.51932 18.0609 4.83519 17.837 5.09939C17.6131 5.36359 17.3268 5.56779 17.0041 5.69352C16.6174 5.84352 16.2591 6.13185 16.1982 6.54268Z" stroke="white" stroke-width="1.5" stroke-linecap="round" stroke-linejoin="round"/>
</g>
<defs>
<clipPath id="clip0_1620_3005">
<rect width="20" height="20" fill="white" transform="translate(0 0.000976562)"/>
</clipPath>
</defs>
</svg>
