<svg width="20" height="20" viewBox="0 0 20 20" fill="none" xmlns="http://www.w3.org/2000/svg">
<g clip-path="url(#clip0_1620_3075)">
<path d="M12.2511 5.25141C12.0984 5.40718 12.0129 5.61661 12.0129 5.83474C12.0129 6.05287 12.0984 6.2623 12.2511 6.41807L13.5844 7.75141C13.7402 7.9041 13.9496 7.98962 14.1678 7.98962C14.3859 7.98962 14.5953 7.9041 14.7511 7.75141L17.8928 4.60974C18.3118 5.53573 18.4387 6.56744 18.2565 7.56736C18.0743 8.56729 17.5917 9.48794 16.873 10.2066C16.1543 10.9253 15.2336 11.4079 14.2337 11.5901C13.2338 11.7723 12.2021 11.6454 11.2761 11.2264L5.51777 16.9847C5.18625 17.3163 4.73661 17.5025 4.26777 17.5025C3.79893 17.5025 3.34929 17.3163 3.01777 16.9847C2.68625 16.6532 2.5 16.2036 2.5 15.7347C2.5 15.2659 2.68625 14.8163 3.01777 14.4847L8.7761 8.72641C8.35707 7.80042 8.2302 6.76871 8.41239 5.76879C8.59457 4.76886 9.07717 3.8482 9.79587 3.12951C10.5146 2.41081 11.4352 1.92821 12.4351 1.74603C13.4351 1.56384 14.4668 1.69071 15.3928 2.10974L12.2594 5.24307L12.2511 5.25141Z" stroke="white" stroke-width="1.5" stroke-linecap="round" stroke-linejoin="round"/>
</g>
<defs>
<clipPath id="clip0_1620_3075">
<rect width="20" height="20" fill="white" transform="translate(0 0.00146484)"/>
</clipPath>
</defs>
</svg>
