<svg width="32" height="32" viewBox="0 0 32 32" fill="none" xmlns="http://www.w3.org/2000/svg">
<path d="M2.78658 17.8894C2.77127 18.0733 2.79429 18.2583 2.85419 18.4329C2.91409 18.6074 3.00957 18.7676 3.13459 18.9033C3.2596 19.0391 3.41143 19.1474 3.58046 19.2214C3.7495 19.2954 3.93205 19.3335 4.11658 19.3334H6.66658C7.02021 19.3334 7.35934 19.1929 7.60939 18.9428C7.85944 18.6928 7.99992 18.3537 7.99992 18V4.66671C7.99992 4.31309 7.85944 3.97395 7.60939 3.7239C7.35934 3.47385 7.02021 3.33337 6.66658 3.33337H5.22658C4.89213 3.33339 4.5699 3.4591 4.32379 3.68557C4.07768 3.91205 3.92568 4.22274 3.89792 4.55604L2.78725 17.8894H2.78658ZM11.9999 17.75C11.9999 18.3074 12.3466 18.806 12.8499 19.0434C13.9493 19.562 15.8219 20.604 16.6666 22.0127C17.7552 23.8287 17.9606 27.1094 17.9939 27.8607C17.9986 27.966 17.9959 28.0714 18.0099 28.1754C18.1906 29.4774 20.7032 27.9567 21.6666 26.3487C22.1899 25.4767 22.2566 24.3307 22.2019 23.4354C22.1426 22.4787 21.8619 21.5534 21.5866 20.6347L20.9999 18.6767H28.2379C28.4439 18.6767 28.6471 18.629 28.8316 18.5373C29.0161 18.4456 29.1768 18.3124 29.3011 18.1481C29.4254 17.9839 29.51 17.793 29.5482 17.5906C29.5864 17.3882 29.5772 17.1796 29.5213 16.9814L25.9412 4.30404C25.8622 4.02444 25.694 3.77831 25.4622 3.6031C25.2305 3.42788 24.9478 3.33317 24.6573 3.33337H13.3333C12.9796 3.33337 12.6405 3.47385 12.3904 3.7239C12.1404 3.97395 11.9999 4.31309 11.9999 4.66671V17.75Z" stroke="black" stroke-width="2" stroke-linecap="round" stroke-linejoin="round"/>
</svg>
