<svg width="48" height="48" viewBox="0 0 48 48" fill="none" xmlns="http://www.w3.org/2000/svg">
<g clip-path="url(#clip0_390_7186)">
<path d="M40.6953 7.55763H38.3662V10.6622C38.3662 10.9822 38.2384 11.289 38.011 11.5153C37.7835 11.7415 37.4749 11.8686 37.1532 11.8686C36.8315 11.8686 36.523 11.7415 36.2955 11.5153C36.068 11.289 35.9402 10.9822 35.9402 10.6622V7.55763H25.2171V10.6622C25.2171 10.9822 25.0893 11.289 24.8618 11.5153C24.6343 11.7415 24.3258 11.8686 24.004 11.8686C23.6823 11.8686 23.3738 11.7415 23.1463 11.5153C22.9188 11.289 22.791 10.9822 22.791 10.6622V7.55763H12.0921V10.6622C12.0921 10.9822 11.9643 11.289 11.7369 11.5153C11.5094 11.7415 11.2008 11.8686 10.8791 11.8686C10.5574 11.8686 10.2489 11.7415 10.0214 11.5153C9.7939 11.289 9.6661 10.9822 9.6661 10.6622V7.55763H7.30475C6.69349 7.55763 6.10727 7.79913 5.67504 8.22901C5.24282 8.65888 5 9.24192 5 9.84986V38.6917C5.00213 39.299 5.24564 39.8808 5.6774 40.3102C6.10916 40.7396 6.69414 40.9818 7.30475 40.9839H40.6953C40.9979 40.9839 41.2976 40.9246 41.5772 40.8094C41.8569 40.6942 42.1109 40.5254 42.325 40.3125C42.539 40.0997 42.7087 39.847 42.8246 39.5689C42.9404 39.2908 43 38.9927 43 38.6917V9.86594C43.0032 9.56328 42.9459 9.26299 42.8314 8.98254C42.7169 8.70209 42.5476 8.44707 42.3331 8.2323C42.1187 8.01752 41.8634 7.84728 41.5823 7.73146C41.3011 7.61563 40.9996 7.55655 40.6953 7.55763ZM34.614 18.7453L21.7883 31.5174C21.676 31.6298 21.5424 31.719 21.3953 31.7797C21.2481 31.8405 21.0904 31.8716 20.931 31.8713C20.6096 31.8701 20.3016 31.743 20.0738 31.5174L13.386 24.8659C13.1672 24.6371 13.0472 24.3321 13.0516 24.0163C13.056 23.7005 13.1844 23.399 13.4095 23.1762C13.6345 22.9534 13.9383 22.8271 14.2559 22.8242C14.5734 22.8213 14.8794 22.9422 15.1085 23.1608L20.931 28.9517L32.8996 17.0563C33.1295 16.8432 33.4336 16.7272 33.7479 16.7327C34.0622 16.7382 34.362 16.8648 34.5842 17.0859C34.8065 17.3069 34.9338 17.6051 34.9393 17.9176C34.9449 18.2302 34.8282 18.5327 34.614 18.7614V18.7453Z" fill="#101828"/>
<path d="M12.0922 3.2069V7.5581H9.66611V3.19081C9.66611 3.03238 9.69748 2.8755 9.75844 2.72913C9.8194 2.58276 9.90875 2.44976 10.0214 2.33773C10.134 2.2257 10.2678 2.13684 10.4149 2.07621C10.5621 2.01558 10.7198 1.98438 10.8791 1.98438C11.0384 1.98438 11.1962 2.01558 11.3433 2.07621C11.4905 2.13684 11.6242 2.2257 11.7369 2.33773C11.8495 2.44976 11.9389 2.58276 11.9998 2.72913C12.0608 2.8755 12.0922 3.03238 12.0922 3.19081V3.2069ZM25.2171 3.2069V7.5581H22.791V3.19081C22.791 3.03238 22.8224 2.8755 22.8834 2.72913C22.9443 2.58276 23.0337 2.44976 23.1463 2.33773C23.259 2.2257 23.3927 2.13684 23.5398 2.07621C23.687 2.01558 23.8448 1.98438 24.0041 1.98438C24.1633 1.98437 24.3211 2.01558 24.4683 2.07621C24.6154 2.13684 24.7491 2.2257 24.8618 2.33773C24.9744 2.44976 25.0638 2.58276 25.1247 2.72913C25.1857 2.8755 25.2171 3.03238 25.2171 3.19081V3.2069ZM38.3663 3.2069V7.5581H35.9402V3.19081C35.9402 2.87084 36.068 2.56398 36.2955 2.33773C36.523 2.11148 36.8315 1.98438 37.1532 1.98438C37.4749 1.98438 37.7835 2.11148 38.011 2.33773C38.2385 2.56398 38.3663 2.87084 38.3663 3.19081V3.2069Z" fill="#101828"/>
</g>
<defs>
<clipPath id="clip0_390_7186">
<rect width="38" height="39" fill="white" transform="translate(5 2)"/>
</clipPath>
</defs>
</svg>
