<svg width="22" height="20" viewBox="0 0 22 20" fill="none" xmlns="http://www.w3.org/2000/svg">
<path fill-rule="evenodd" clip-rule="evenodd" d="M15.8196 2.32999C16.1136 2.58722 16.126 3.03908 15.8497 3.3153L9.58251 9.58252L15.8772 15.8773C16.143 16.143 16.1445 16.5758 15.8606 16.822C15.6878 16.9719 15.5099 17.1153 15.3275 17.252C14.1857 18.1072 12.8624 18.7004 11.452 18.9809C9.59314 19.3507 7.66642 19.1609 5.91544 18.4356C4.16447 17.7103 2.66789 16.4821 1.61495 14.9063C0.562005 13.3304 1.16726e-07 11.4778 0 9.58252C-1.16726e-07 7.68728 0.562004 5.8346 1.61494 4.25876C2.66788 2.68292 4.16447 1.45471 5.91544 0.72943C7.66642 0.00415217 9.59314 -0.185614 11.452 0.184129C12.8624 0.464681 14.1857 1.0578 15.3275 1.91307C15.4124 1.97667 15.6157 2.15159 15.8196 2.32999ZM12.098 5.14248C11.6273 4.87576 11.1145 4.68416 10.5781 4.57746C9.58817 4.38055 8.56211 4.48161 7.62964 4.86785C6.69716 5.2541 5.90017 5.90818 5.33943 6.74738C4.77869 7.58658 4.4794 8.57322 4.4794 9.58252C4.4794 10.5918 4.77869 11.5785 5.33943 12.4177C5.90017 13.2569 6.69716 13.9109 7.62964 14.2972C8.56211 14.6834 9.58817 14.7845 10.5781 14.5876C11.1145 14.4809 11.6273 14.2893 12.098 14.0226L14.3537 16.2782C13.4108 16.9501 12.3321 17.4183 11.1865 17.6462C9.59163 17.9635 7.93853 17.8006 6.43621 17.1784C4.9339 16.5561 3.64984 15.5023 2.74643 14.1502C1.84302 12.7982 1.36083 11.2086 1.36083 9.58252C1.36083 7.95642 1.84302 6.36685 2.74643 5.0148C3.64984 3.66275 4.93389 2.60895 6.43621 1.98667C7.93853 1.36439 9.59163 1.20158 11.1865 1.51881C12.3321 1.7467 13.4108 2.21494 14.3537 2.88684L12.098 5.14248Z" fill="#101828"/>
<path fill-rule="evenodd" clip-rule="evenodd" d="M18.7124 3.28765C18.9781 3.02193 19.4109 3.02043 19.6571 3.30433C20.3308 4.08119 20.8761 4.96258 21.2707 5.91532C21.7523 7.07792 22.0001 8.32399 22.0001 9.58239C22.0001 10.8408 21.7523 12.0869 21.2707 13.2495C20.8761 14.2022 20.3308 15.0836 19.6571 15.8604C19.4109 16.1443 18.9781 16.1428 18.7124 15.8771L17.453 14.6177C17.3952 14.56 17.4156 14.4611 17.4859 14.4197C17.8122 14.2274 18.0311 13.8725 18.0311 13.4664C18.0311 12.8558 17.536 12.3608 16.9254 12.3608C16.5193 12.3608 16.1644 12.5796 15.9721 12.9059C15.9307 12.9762 15.8318 12.9966 15.7741 12.9388L12.8988 10.0635C12.633 9.7978 12.633 9.36698 12.8988 9.10126L18.7124 3.28765ZM18.0311 7.56949C18.0311 7.99225 17.6883 8.33496 17.2656 8.33496C16.8428 8.33496 16.5001 7.99225 16.5001 7.56949C16.5001 7.14674 16.8428 6.80403 17.2656 6.80403C17.6883 6.80403 18.0311 7.14674 18.0311 7.56949Z" fill="#101828"/>
</svg>
