<svg width="28" height="28" viewBox="0 0 28 28" fill="none" xmlns="http://www.w3.org/2000/svg">
<g clip-path="url(#clip0_1842_10610)">
<rect x="-12.3353" y="14.3353" width="38.1873" height="17.3579" transform="rotate(-45 -12.3353 14.3353)" fill="#36AFF9"/>
<path fill-rule="evenodd" clip-rule="evenodd" d="M7.59702 2.3633C7.77207 2.18847 8.00629 2.0856 8.25347 2.07498C8.50064 2.06436 8.74282 2.14676 8.93222 2.30593L8.99552 2.36379L9.9351 3.3029H11.2634C11.5128 3.30295 11.753 3.39725 11.9359 3.5669C12.1187 3.73656 12.2307 3.96904 12.2494 4.21778L12.2524 4.29196V5.62027L13.192 6.55987C13.367 6.73496 13.4699 6.96928 13.4805 7.21657C13.4912 7.46387 13.4087 7.70616 13.2494 7.8956L13.1915 7.9584L12.2519 8.89801V10.2263C12.252 10.4758 12.1578 10.7162 11.9881 10.8991C11.8184 11.0821 11.5859 11.1942 11.3371 11.2129L11.2634 11.2154H9.9356L8.99601 12.155C8.82093 12.3299 8.58661 12.4329 8.33933 12.4435C8.09204 12.4541 7.84975 12.3717 7.66032 12.2123L7.59751 12.155L6.65793 11.2154H5.32916C5.07964 11.2155 4.8393 11.1212 4.65634 10.9515C4.47338 10.7819 4.36131 10.5493 4.34259 10.3005L4.34012 10.2263V8.89801L3.40054 7.9584C3.22557 7.78332 3.12262 7.549 3.112 7.3017C3.10138 7.05441 3.18386 6.81212 3.34317 6.62268L3.40054 6.55987L4.34012 5.62027V4.29196C4.34017 4.04252 4.43446 3.80231 4.60411 3.61945C4.77377 3.43658 5.00625 3.32458 5.25498 3.30587L5.32916 3.3029H6.65743L7.59702 2.3633ZM9.81889 5.76714L7.72015 7.86593L6.84585 6.9916C6.75305 6.89887 6.62723 6.8468 6.49605 6.84685C6.36487 6.84689 6.23908 6.89905 6.14635 6.99185C6.05362 7.08464 6.00156 7.21047 6.0016 7.34165C6.00165 7.47284 6.05381 7.59863 6.1466 7.69136L7.33542 8.8802C7.38594 8.93075 7.44591 8.97084 7.51193 8.99819C7.57794 9.02554 7.6487 9.03962 7.72015 9.03962C7.79161 9.03962 7.86237 9.02554 7.92838 8.99819C7.9944 8.97084 8.05437 8.93075 8.10489 8.8802L10.5181 6.46641C10.6082 6.37314 10.6581 6.24822 10.6569 6.11856C10.6558 5.98889 10.6038 5.86486 10.5121 5.77317C10.4204 5.68148 10.2964 5.62947 10.1667 5.62834C10.0371 5.62722 9.91216 5.67706 9.81889 5.76714Z" fill="white"/>
</g>
<defs>
<clipPath id="clip0_1842_10610">
<rect width="28" height="28" fill="white"/>
</clipPath>
</defs>
</svg>
