<svg width="28" height="28" viewBox="0 0 28 28" fill="none" xmlns="http://www.w3.org/2000/svg">
<g clip-path="url(#clip0_1842_10609)">
<rect x="-12.3353" y="14.3353" width="38.1873" height="17.3579" transform="rotate(-45 -12.3353 14.3353)" fill="#D0D5DD"/>
<path fill-rule="evenodd" clip-rule="evenodd" d="M7.59702 2.36331C7.77207 2.18849 8.00629 2.08561 8.25347 2.07499C8.50064 2.06437 8.74282 2.14678 8.93222 2.30595L8.99552 2.36381L9.9351 3.30292H11.2634C11.5128 3.30297 11.753 3.39726 11.9359 3.56692C12.1187 3.73657 12.2307 3.96906 12.2494 4.2178L12.2524 4.29198V5.62028L13.192 6.55989C13.367 6.73497 13.4699 6.9693 13.4805 7.21659C13.4912 7.46388 13.4087 7.70617 13.2494 7.89561L13.1915 7.95842L12.2519 8.89802V10.2263C12.252 10.4759 12.1578 10.7162 11.9881 10.8992C11.8184 11.0821 11.5859 11.1942 11.3371 11.2129L11.2634 11.2154H9.9356L8.99601 12.155C8.82093 12.33 8.58661 12.4329 8.33933 12.4435C8.09204 12.4542 7.84975 12.3717 7.66032 12.2124L7.59751 12.155L6.65793 11.2154H5.32916C5.07964 11.2155 4.8393 11.1212 4.65634 10.9516C4.47338 10.7819 4.36131 10.5493 4.34259 10.3005L4.34012 10.2263V8.89802L3.40054 7.95842C3.22557 7.78333 3.12262 7.54901 3.112 7.30172C3.10138 7.05442 3.18386 6.81213 3.34317 6.62269L3.40054 6.55989L4.34012 5.62028V4.29198C4.34017 4.04254 4.43446 3.80232 4.60411 3.61946C4.77377 3.4366 5.00625 3.3246 5.25498 3.30589L5.32916 3.30292H6.65743L7.59702 2.36331ZM9.81889 5.76716L7.72015 7.86594L6.84585 6.99161C6.75305 6.89888 6.62723 6.84682 6.49605 6.84686C6.36487 6.84691 6.23908 6.89907 6.14635 6.99186C6.05362 7.08465 6.00156 7.21048 6.0016 7.34167C6.00165 7.47285 6.05381 7.59864 6.1466 7.69137L7.33542 8.88022C7.38594 8.93076 7.44591 8.97085 7.51193 8.99821C7.57794 9.02556 7.6487 9.03964 7.72015 9.03964C7.79161 9.03964 7.86237 9.02556 7.92838 8.99821C7.9944 8.97085 8.05437 8.93076 8.10489 8.88022L10.5181 6.46642C10.6082 6.37315 10.6581 6.24823 10.6569 6.11857C10.6558 5.98891 10.6038 5.86487 10.5121 5.77318C10.4204 5.68149 10.2964 5.62948 10.1667 5.62836C10.0371 5.62723 9.91216 5.67708 9.81889 5.76716Z" fill="white"/>
</g>
<defs>
<clipPath id="clip0_1842_10609">
<rect width="28" height="28" fill="white"/>
</clipPath>
</defs>
</svg>
