<svg width="16" height="20" viewBox="0 0 16 20" fill="none" xmlns="http://www.w3.org/2000/svg">
<path d="M14.8217 0H1.16589C0.52093 0 0 0.52093 0 1.16589V18.7535C0 19.3984 0.52093 19.9194 1.16589 19.9194H12.031C12.1302 19.9194 12.2047 19.8822 12.2791 19.7953L15.9256 15.1814C15.9628 15.1318 16 15.0574 16 14.9953V1.16589C15.9752 0.52093 15.4543 0 14.8217 0ZM3.94419 4.17984H12.0062C12.3535 4.17984 12.6264 4.45271 12.6264 4.8C12.6264 5.14729 12.3535 5.42016 12.0062 5.42016H3.94419C3.5969 5.42016 3.32403 5.14729 3.32403 4.8C3.32403 4.45271 3.6093 4.17984 3.94419 4.17984ZM3.94419 7.29302H9.9845C10.3318 7.29302 10.6047 7.56589 10.6047 7.91318C10.6047 8.26046 10.3318 8.53333 9.9845 8.54574H3.94419C3.5969 8.54574 3.32403 8.27287 3.32403 7.92558C3.33643 7.56589 3.6093 7.29302 3.94419 7.29302ZM3.33643 10.8527C3.33643 10.5054 3.6093 10.2326 3.95659 10.2202H12.0186C12.3659 10.2202 12.6388 10.493 12.6512 10.8527C12.6512 11.2 12.3783 11.4729 12.0186 11.4853H3.95659C3.6093 11.4853 3.33643 11.2 3.33643 10.8527ZM14.3256 15.0822L12.0682 17.9473C11.9814 18.0589 11.7953 17.9969 11.7953 17.8605V15.7023C11.7953 15.2186 12.1922 14.8093 12.6884 14.8093H14.1767C14.3256 14.7969 14.4124 14.9581 14.3256 15.0822Z" fill="#101828"/>
</svg>
