<svg width="72" height="72" viewBox="0 0 72 72" fill="none" xmlns="http://www.w3.org/2000/svg">
<g clip-path="url(#clip0_1848_10596)">
<rect x="-30.3281" y="64.126" width="133.811" height="26" transform="rotate(-45 -30.3281 64.126)" fill="#D0D5DD"/>
<path d="M8.58307 44.3498C9.24799 45.0147 9.69295 45.7088 9.91794 46.4319C10.1429 47.1511 10.167 47.8502 9.99026 48.5292C9.81549 49.2061 9.45792 49.8148 8.91754 50.3552C8.37717 50.8956 7.76749 51.2541 7.08851 51.4309C6.40952 51.6037 5.70945 51.5786 4.98828 51.3556C4.26711 51.1286 3.57507 50.6836 2.91216 50.0207C2.24724 49.3558 1.80228 48.6637 1.57729 47.9446C1.3523 47.2214 1.32719 46.5213 1.50196 45.8444C1.67874 45.1654 2.03731 44.5557 2.57769 44.0153C3.11806 43.4749 3.72674 43.1174 4.40371 42.9426C5.08269 42.7658 5.78277 42.7909 6.50394 43.0179C7.22511 43.2409 7.91815 43.6849 8.58307 44.3498ZM7.45913 45.4737C6.99108 45.0057 6.52302 44.6843 6.05496 44.5095C5.58691 44.3307 5.14195 44.2875 4.7201 44.3799C4.29624 44.4703 3.91657 44.6833 3.5811 45.0187C3.24562 45.3542 3.03269 45.7339 2.94229 46.1577C2.84988 46.5796 2.89207 47.0255 3.06884 47.4956C3.24562 47.9617 3.56804 48.4287 4.03609 48.8968C4.50415 49.3648 4.97221 49.6882 5.44026 49.867C5.90832 50.0418 6.35428 50.084 6.77814 49.9936C7.2 49.9012 7.57866 49.6872 7.91413 49.3518C8.24961 49.0163 8.46355 48.6376 8.55595 48.2158C8.64635 47.7919 8.60316 47.347 8.42638 46.8809C8.24961 46.4108 7.92719 45.9418 7.45913 45.4737ZM11.0562 42.624L13.7681 45.3359L12.6773 46.4267L8.04898 41.7983L9.09156 40.7558L9.87801 41.5422L9.93225 41.488C9.77958 41.1224 9.74342 40.7467 9.82377 40.361C9.90614 39.9733 10.1201 39.6067 10.4656 39.2612C10.785 38.9418 11.1315 38.7319 11.5052 38.6314C11.8808 38.529 12.2635 38.542 12.6532 38.6706C13.0449 38.7971 13.4246 39.0462 13.7922 39.4179L16.7392 42.3648L15.6484 43.4556L12.8702 40.6774C12.5608 40.368 12.2384 40.2063 11.9029 40.1923C11.5694 40.1762 11.2621 40.3088 10.9809 40.59C10.79 40.7809 10.6625 40.9928 10.5982 41.2258C10.5339 41.4548 10.5379 41.6899 10.6102 41.9309C10.6846 42.17 10.8332 42.401 11.0562 42.624ZM17.8962 41.2077L11.7251 35.0366L12.8159 33.9458L15.1241 36.254L15.1693 36.2088C15.113 36.04 15.0728 35.8412 15.0487 35.6122C15.0226 35.3811 15.0517 35.133 15.1361 34.8679C15.2185 34.6007 15.3953 34.3315 15.6664 34.0603C16.024 33.7028 16.4378 33.4717 16.9079 33.3673C17.378 33.2588 17.8751 33.298 18.3995 33.4848C18.9238 33.6676 19.443 34.0161 19.9573 34.5304C20.4655 35.0386 20.8141 35.5539 21.0029 36.0762C21.1917 36.5985 21.2359 37.0967 21.1355 37.5708C21.035 38.0448 20.803 38.4637 20.4394 38.8273C20.1743 39.0924 19.9101 39.2682 19.6469 39.3546C19.3838 39.441 19.1367 39.4751 18.9057 39.457C18.6747 39.4349 18.4738 39.3968 18.303 39.3425L18.2398 39.4058L18.969 40.135L17.8962 41.2077ZM16.6518 37.8239C16.9511 38.1232 17.2554 38.3432 17.5648 38.4838C17.8762 38.6224 18.1755 38.6746 18.4627 38.6405C18.75 38.6023 19.0091 38.4677 19.2401 38.2367C19.4812 37.9956 19.6188 37.7295 19.653 37.4382C19.6851 37.1449 19.6299 36.8446 19.4872 36.5372C19.3446 36.2258 19.1287 35.9255 18.8394 35.6363C18.5521 35.349 18.2558 35.1351 17.9505 34.9944C17.6451 34.8538 17.3478 34.8016 17.0586 34.8378C16.7693 34.8739 16.5031 35.0135 16.2601 35.2566C16.027 35.4896 15.8904 35.7488 15.8503 36.034C15.8101 36.3193 15.8583 36.6146 15.9949 36.9199C16.1335 37.2232 16.3525 37.5246 16.6518 37.8239ZM25.302 33.9827C24.85 34.4347 24.3589 34.727 23.8286 34.8596C23.2982 34.9922 22.7629 34.9711 22.2225 34.7963C21.6841 34.6195 21.1759 34.2921 20.6978 33.814C20.2197 33.3359 19.8913 32.8267 19.7125 32.2863C19.5357 31.7439 19.5136 31.2076 19.6462 30.6772C19.7788 30.1469 20.071 29.6557 20.523 29.2037C20.975 28.7518 21.4662 28.4595 21.9965 28.3269C22.5268 28.1943 23.0622 28.2174 23.6026 28.3962C24.1449 28.573 24.6552 28.9004 25.1333 29.3785C25.6114 29.8566 25.9378 30.3659 26.1126 30.9062C26.2894 31.4446 26.3115 31.9789 26.1789 32.5093C26.0463 33.0396 25.754 33.5308 25.302 33.9827ZM24.4342 33.1029C24.6793 32.8578 24.8169 32.5856 24.847 32.2863C24.8752 31.985 24.8149 31.6796 24.6662 31.3703C24.5196 31.0589 24.3057 30.7626 24.0244 30.4814C23.7412 30.1981 23.4439 29.9832 23.1325 29.8365C22.8211 29.6859 22.5148 29.6246 22.2135 29.6527C21.9121 29.6808 21.6389 29.8174 21.3939 30.0625C21.1428 30.3136 21.0021 30.5908 20.972 30.8942C20.9439 31.1955 21.0041 31.5028 21.1528 31.8162C21.3015 32.1256 21.5174 32.4219 21.8006 32.7051C22.0819 32.9864 22.3772 33.2013 22.6865 33.35C22.9979 33.4966 23.3043 33.5559 23.6056 33.5277C23.9069 33.4956 24.1831 33.354 24.4342 33.1029ZM29.7805 29.5103C29.4872 29.8036 29.1708 30.0156 28.8313 30.1461C28.4918 30.2727 28.1503 30.3008 27.8068 30.2305C27.4653 30.1582 27.1429 29.9704 26.8395 29.667C26.5784 29.4059 26.4107 29.1417 26.3363 28.8746C26.262 28.6074 26.257 28.3392 26.3213 28.07C26.3855 27.8008 26.496 27.5357 26.6527 27.2745C26.8094 27.0094 26.9882 26.7522 27.1891 26.5031C27.4321 26.2038 27.627 25.9587 27.7736 25.7679C27.9183 25.5751 28.0047 25.4164 28.0328 25.2918C28.0609 25.1632 28.0227 25.0467 27.9183 24.9423L27.9002 24.9242C27.6732 24.6972 27.4301 24.5887 27.171 24.5988C26.9119 24.6088 26.6557 24.7404 26.4026 24.9935C26.1354 25.2607 25.9818 25.5309 25.9416 25.8041C25.9034 26.0753 25.9366 26.3173 26.041 26.5303L24.8779 27.4041C24.677 27.0425 24.5746 26.6749 24.5706 26.3012C24.5645 25.9256 24.6479 25.557 24.8207 25.1954C24.9914 24.8318 25.2385 24.4883 25.5619 24.1649C25.7849 23.9419 26.033 23.746 26.3062 23.5773C26.5794 23.4085 26.8677 23.293 27.171 23.2308C27.4723 23.1665 27.7807 23.1815 28.0961 23.276C28.4135 23.3684 28.7258 23.5682 29.0332 23.8756L32.1308 26.9732L31.0822 28.0218L30.4464 27.386L30.4102 27.4222C30.4725 27.617 30.4996 27.831 30.4916 28.064C30.4835 28.293 30.4233 28.532 30.3108 28.7811C30.1983 29.0262 30.0215 29.2693 29.7805 29.5103ZM29.2622 28.4256C29.4811 28.2066 29.6278 27.9736 29.7021 27.7265C29.7744 27.4774 29.7815 27.2374 29.7232 27.0063C29.667 26.7733 29.5535 26.5714 29.3827 26.4007L28.8373 25.8553C28.8313 25.9176 28.7991 26.0019 28.7409 26.1084C28.6846 26.2129 28.6153 26.3243 28.533 26.4429C28.4506 26.5614 28.3672 26.6769 28.2829 26.7894C28.1985 26.9019 28.1252 26.9993 28.0629 27.0817C27.9223 27.2665 27.8128 27.4483 27.7345 27.6271C27.6561 27.8059 27.625 27.9776 27.6411 28.1423C27.6551 28.305 27.7325 28.4567 27.8731 28.5973C28.074 28.7982 28.2989 28.8766 28.548 28.8324C28.7971 28.7882 29.0352 28.6526 29.2622 28.4256ZM33.2276 25.8764L28.5993 21.248L29.6569 20.1904L30.4283 20.9618L30.4765 20.9136C30.2937 20.562 30.2324 20.2115 30.2927 19.862C30.353 19.5084 30.5157 19.199 30.7809 18.9339C30.8411 18.8736 30.9114 18.8093 30.9918 18.741C31.0721 18.6687 31.1424 18.6125 31.2027 18.5723L32.2061 19.5757C32.1438 19.6058 32.0565 19.6651 31.944 19.7535C31.8315 19.8378 31.729 19.9262 31.6366 20.0186C31.4377 20.2175 31.3021 20.4395 31.2298 20.6846C31.1575 20.9256 31.1515 21.1667 31.2117 21.4077C31.272 21.6488 31.4006 21.8678 31.5974 22.0646L34.3184 24.7856L33.2276 25.8764ZM38.2002 21.0665C37.8366 21.4301 37.4178 21.6621 36.9437 21.7626C36.4696 21.863 35.9714 21.8188 35.4491 21.63C34.9268 21.4411 34.4116 21.0926 33.9033 20.5844C33.3891 20.0701 33.0395 19.5518 32.8547 19.0295C32.6699 18.5032 32.6317 18.005 32.7402 17.535C32.8467 17.0629 33.0777 16.6491 33.4333 16.2935C33.7044 16.0223 33.9736 15.8456 34.2408 15.7632C34.506 15.6788 34.7541 15.6497 34.9851 15.6758C35.2141 15.6999 35.413 15.7401 35.5817 15.7963L35.6269 15.7511L33.3188 13.443L34.4126 12.3492L40.5837 18.5203L39.511 19.593L38.7818 18.8638L38.7155 18.9301C38.7717 19.0988 38.8099 19.2997 38.83 19.5328C38.848 19.7638 38.8139 20.0109 38.7275 20.274C38.6411 20.5372 38.4654 20.8013 38.2002 21.0665ZM37.6096 19.8672C37.8406 19.6362 37.9752 19.3771 38.0134 19.0898C38.0495 18.8005 37.9973 18.5012 37.8567 18.1919C37.7161 17.8825 37.4961 17.5782 37.1968 17.2789C36.8975 16.9795 36.5951 16.7616 36.2898 16.625C35.9865 16.4864 35.6922 16.4372 35.4069 16.4773C35.1237 16.5155 34.8645 16.6521 34.6295 16.8871C34.3864 17.1302 34.2468 17.3964 34.2107 17.6856C34.1745 17.9749 34.2267 18.2722 34.3674 18.5776C34.508 18.8829 34.7219 19.1792 35.0092 19.4665C35.2985 19.7557 35.5978 19.9727 35.9071 20.1173C36.2165 20.2579 36.5178 20.3122 36.8111 20.28C37.1044 20.2439 37.3706 20.1063 37.6096 19.8672ZM41.746 17.358L37.1177 12.7296L38.2085 11.6388L42.8368 16.2672L41.746 17.358ZM37.0092 11.5243C36.8365 11.6971 36.6306 11.7885 36.3915 11.7985C36.1504 11.8066 35.9486 11.7292 35.7858 11.5665C35.6211 11.4018 35.5438 11.1999 35.5538 10.9608C35.5619 10.7198 35.6523 10.5129 35.825 10.3401C35.9998 10.1653 36.2067 10.075 36.4457 10.0689C36.6848 10.0589 36.8867 10.1362 37.0514 10.3009C37.2141 10.4637 37.2915 10.6655 37.2834 10.9066C37.2754 11.1436 37.184 11.3496 37.0092 11.5243ZM42.3374 11.3428L45.0493 14.0547L43.9585 15.1455L39.3302 10.5171L40.3727 9.47456L41.1592 10.261L41.2134 10.2068C41.0608 9.84117 41.0246 9.46552 41.105 9.07983C41.1873 8.69213 41.4013 8.32552 41.7468 7.98C42.0662 7.66059 42.4127 7.45067 42.7863 7.35023C43.162 7.24778 43.5447 7.26084 43.9344 7.3894C44.3261 7.51596 44.7058 7.76505 45.0734 8.13669L48.0203 11.0836L46.9296 12.1744L44.1513 9.39622C43.842 9.08686 43.5196 8.92515 43.1841 8.91109C42.8506 8.89502 42.5433 9.0276 42.262 9.30884C42.0712 9.49967 41.9436 9.71161 41.8794 9.94463C41.8151 10.1736 41.8191 10.4087 41.8914 10.6497C41.9657 10.8888 42.1144 11.1198 42.3374 11.3428ZM52.9741 9.79397C52.5824 10.1857 52.1927 10.4689 51.805 10.6437C51.4193 10.8205 51.0527 10.9059 50.7051 10.8998C50.3576 10.8938 50.0432 10.8165 49.762 10.6678L50.5063 9.44744C50.6409 9.49365 50.7945 9.51876 50.9673 9.52278C51.1421 9.5288 51.3299 9.48963 51.5308 9.40526C51.7357 9.32089 51.9476 9.16922 52.1666 8.95026C52.4759 8.6409 52.6567 8.30944 52.7089 7.95589C52.7632 7.60435 52.6196 7.25782 52.2781 6.91632L51.4012 6.03947L51.347 6.09371C51.4032 6.26245 51.4364 6.46032 51.4464 6.68732C51.4585 6.91231 51.4163 7.15337 51.3198 7.41049C51.2254 7.66562 51.0456 7.92576 50.7805 8.19092C50.4249 8.54649 50.0191 8.78554 49.5631 8.90807C49.1071 9.0266 48.627 9.0045 48.1228 8.84178C47.6186 8.67505 47.1144 8.33958 46.6101 7.83536C46.1019 7.32713 45.7574 6.81387 45.5766 6.2956C45.3958 5.7733 45.3597 5.27712 45.4681 4.80706C45.5746 4.33498 45.8056 3.92116 46.1612 3.5656C46.4324 3.29441 46.7016 3.11763 46.9687 3.03527C47.2359 2.94889 47.486 2.91776 47.719 2.94186C47.95 2.96396 48.1489 3.00413 48.3156 3.06239L48.3759 3.00213L47.6105 2.23676L48.6863 1.16104L53.3899 5.8647C53.7857 6.26044 54.0187 6.6823 54.089 7.13026C54.1593 7.57823 54.095 8.03022 53.8962 8.48622C53.6973 8.94222 53.3899 9.37814 52.9741 9.79397ZM50.2291 7.03083C50.4601 6.79981 50.6007 6.5467 50.6509 6.27149C50.7011 5.99628 50.663 5.71103 50.5364 5.41573C50.4098 5.12043 50.1989 4.82514 49.9036 4.52984C49.6123 4.23856 49.315 4.02562 49.0117 3.89103C48.7104 3.75443 48.4181 3.70722 48.1348 3.74941C47.8516 3.78758 47.5925 3.92418 47.3574 4.15921C47.1144 4.40228 46.9748 4.66845 46.9386 4.95772C46.9024 5.24699 46.9537 5.54329 47.0923 5.84662C47.2289 6.14795 47.4368 6.43822 47.716 6.71745C47.9993 7.00069 48.2885 7.2076 48.5838 7.33818C48.8791 7.46473 49.1674 7.50591 49.4486 7.46172C49.7299 7.41351 49.99 7.26988 50.2291 7.03083Z" fill="#666F85"/>
</g>
<defs>
<clipPath id="clip0_1848_10596">
<rect width="72" height="72" fill="white"/>
</clipPath>
</defs>
</svg>
