<svg width="180" height="70" viewBox="0 0 180 70" fill="none" xmlns="http://www.w3.org/2000/svg">
<g clip-path="url(#clip0_423_37)">
<path d="M174 0.25H6C2.82436 0.25 0.25 2.82436 0.25 6V64C0.25 67.1756 2.82436 69.75 6 69.75H174C177.176 69.75 179.75 67.1756 179.75 64V6C179.75 2.82436 177.176 0.25 174 0.25Z" fill="white" stroke="#E8E8E8" stroke-width="0.5"/>
<path d="M60.5742 48.8309H52.5769C52.2617 48.8309 52.1041 48.6339 52.1041 48.24V22.6327C52.1041 22.2387 52.2748 22.0418 52.6163 22.0418H60.5742C66.2735 22.0418 69.1231 23.959 69.1231 27.7936V43.0791C69.1231 46.9137 66.2735 48.8309 60.5742 48.8309ZM60.5742 24.4449H54.8618V46.4278H60.5742C64.4088 46.4278 66.326 45.1671 66.326 42.6458V28.2269C66.326 25.7056 64.4088 24.4449 60.5742 24.4449Z" fill="black"/>
<path d="M83.2536 22.0418C83.595 22.0418 83.8314 22.2387 83.9627 22.6327L91.8419 48.24C91.9732 48.6339 91.8156 48.8309 91.3692 48.8309H89.6751C89.3074 48.8309 89.0711 48.6339 88.966 48.24L86.7992 41.2275H77.7776L75.6502 48.24C75.5452 48.6339 75.3219 48.8309 74.9805 48.8309H73.4047C73.0107 48.8309 72.8662 48.6339 72.9713 48.24L80.8111 22.6327C80.9424 22.2387 81.1919 22.0418 81.5596 22.0418H83.2536ZM86.2083 38.982L83.3324 29.7633C83.1486 29.1593 82.8203 27.5703 82.3475 24.9964C82.0849 26.9137 81.7566 28.4764 81.3626 29.6846L78.4473 38.982H86.2083Z" fill="black"/>
<path d="M95.49 43.3943V27.4784C95.49 23.6439 98.3265 21.7266 104 21.7266C109.699 21.7266 112.548 23.6439 112.548 27.4784V43.3943C112.548 47.2288 109.699 49.1461 104 49.1461C98.3265 49.1461 95.49 47.2288 95.49 43.3943ZM109.751 42.9609V27.9117C109.751 25.3904 107.834 24.1297 104 24.1297C100.191 24.1297 98.2871 25.3904 98.2871 27.9117V42.9609C98.2871 45.4823 100.191 46.7429 104 46.7429C107.834 46.7429 109.751 45.4823 109.751 42.9609Z" fill="black"/>
<path d="M125.579 43.1172C125.125 43.1172 124.898 42.905 124.898 42.4806L125.092 37.0056L119.689 40.0614C119.267 40.2878 118.943 40.2029 118.716 39.8068L118.229 39.0428C118.002 38.675 118.099 38.3921 118.521 38.194L123.973 35.605L118.521 32.9312C118.132 32.7614 118.034 32.4926 118.229 32.1248L118.716 31.276C118.943 30.9081 119.267 30.8374 119.689 31.0638L125.141 34.1196L124.898 28.4748C124.898 28.0504 125.125 27.8382 125.579 27.8382H126.65C127.104 27.8382 127.331 28.0504 127.331 28.4748L127.039 34.1196L132.442 31.0638C132.929 30.8091 133.27 30.8798 133.465 31.276L133.903 32.1248C134.065 32.4643 133.968 32.7331 133.611 32.9312L128.159 35.605L133.611 38.194C134 38.3921 134.097 38.675 133.903 39.0428L133.465 39.8492C133.27 40.2453 132.929 40.3161 132.442 40.0614L127.088 37.0481L127.331 42.4806C127.331 42.905 127.104 43.1172 126.65 43.1172H125.579Z" fill="black"/>
</g>
<defs>
<clipPath id="clip0_423_37">
<rect width="180" height="70" fill="white"/>
</clipPath>
</defs>
</svg>
