<svg width="180" height="70" viewBox="0 0 180 70" fill="none" xmlns="http://www.w3.org/2000/svg">
<g clip-path="url(#clip0_17_119)">
<mask id="mask0_17_119" style="mask-type:luminance" maskUnits="userSpaceOnUse" x="0" y="0" width="180" height="70">
<path d="M180 0H0V70H180V0Z" fill="white"/>
</mask>
<g mask="url(#mask0_17_119)">
<path d="M174 0.25H6C2.82436 0.25 0.25 2.82436 0.25 6V64C0.25 67.1756 2.82436 69.75 6 69.75H174C177.176 69.75 179.75 67.1756 179.75 64V6C179.75 2.82436 177.176 0.25 174 0.25Z" fill="white" stroke="#E8E8E8" stroke-width="0.5"/>
</g>
<path fill-rule="evenodd" clip-rule="evenodd" d="M49.4831 21.0547L49.4588 21.003C48.9028 19.8201 47.6995 19 46.3039 19C44.3798 19 42.8198 20.5589 42.8198 22.4821C42.8198 23.472 43.2336 24.3659 43.8965 24.9993L43.9371 25.038C42.8525 26.6291 42.2184 28.5513 42.2184 30.6214C42.2184 30.9929 42.2389 31.3595 42.2786 31.7204L42.07 31.8846C41.5124 32.3234 40.8389 32.9765 40.3436 33.4832C39.8528 34.0006 39.3957 34.5503 38.9759 35.1288C38.361 35.8341 37.8671 36.648 37.5269 37.5381L37.5051 37.5825L37.5022 37.6036C37.1774 38.4763 37 39.4203 37 40.405C37 43.697 38.9808 46.5258 41.8146 47.7675C42.6877 48.2576 43.5991 48.6877 44.5431 49.0522L44.5488 49.0545L44.835 49.1545C47.1705 50.0388 49.427 50.4602 52.0692 50.4602C52.8504 50.4602 53.6218 50.4179 54.3814 50.3356L54.3883 50.3349L56.1102 50.0849L56.113 50.0844C57.3518 49.8863 58.6772 49.4679 60.0794 48.8957C60.3017 48.805 60.5221 48.7106 60.7406 48.6126L60.9037 48.5395L60.9043 48.5372C61.4192 48.3003 61.9228 48.0434 62.4144 47.7675C65.2482 46.5258 67.2291 43.697 67.2291 40.4049C67.2291 39.4203 67.0517 38.4763 66.7268 37.6035L66.7238 37.5826L66.7021 37.5382C66.3586 36.6402 65.834 35.8221 65.2618 35.1007C65.1509 34.9485 65.0261 34.8007 64.9111 34.6646C64.8525 34.5952 64.7963 34.5287 64.7458 34.4662L64.7435 34.4632L64.4763 34.1456L64.473 34.1418C63.6483 33.2116 63.1158 32.7008 62.1895 31.8882L62.034 31.7518C62.076 31.3808 62.0977 31.0036 62.0977 30.6214C62.0977 28.5538 61.4653 26.6339 60.3831 25.044L60.4232 25.006C61.0902 24.3721 61.5069 23.4754 61.5069 22.4821C61.5069 20.5589 59.9469 19 58.0228 19C56.6259 19 55.4216 19.8217 54.8663 21.0063L54.8424 21.0573C53.9886 20.8187 53.0882 20.691 52.1581 20.691C51.2313 20.691 50.3342 20.8177 49.4831 21.0547Z" fill="white"/>
<path d="M48.3464 35.6376L45.1204 40.9957L51.0996 49.4443C50.7781 49.7598 50.3374 49.9544 49.8512 49.9544C49.8444 49.9544 49.8376 49.9543 49.8308 49.9543C47.0063 49.637 44.3529 48.7548 41.9861 47.4235C39.2776 46.2446 37.384 43.5458 37.384 40.405C37.384 39.4522 37.5583 38.54 37.8767 37.6987L37.877 37.6963L37.8795 37.6911C38.2056 36.8322 38.682 36.0472 39.2766 35.3682C40.1482 34.1647 41.1847 33.0882 42.3527 32.1718C43.6713 33.4562 45.241 34.4843 46.9813 35.1755L46.9814 35.1754C47.4257 35.3518 47.8811 35.5064 48.3464 35.6376Z" fill="black"/>
<path d="M53.1746 49.4869L59.1891 41.0066L55.9518 35.6303C56.2589 35.5431 56.5617 35.4458 56.8598 35.3386C58.7575 34.6504 60.4592 33.5524 61.8764 32.1718C63.0446 33.0882 64.0608 34.1466 64.9527 35.3682C65.5044 36.1239 66.0237 36.8322 66.3497 37.6911L66.3522 37.6963L66.3526 37.6987C66.671 38.54 66.8452 39.4522 66.8452 40.405C66.8452 43.5458 64.9516 46.2446 62.2432 47.4235C59.8764 48.7548 57.2229 49.637 54.3984 49.9543L54.3905 49.9543C54.3864 49.9544 54.3823 49.9544 54.3781 49.9544C53.9141 49.9544 53.4916 49.7772 53.1746 49.4869Z" fill="black"/>
<path d="M44.1617 24.7219C43.5713 24.1578 43.2036 23.3629 43.2036 22.4821C43.2036 20.771 44.5916 19.3839 46.3037 19.3839C47.5451 19.3839 48.6161 20.1131 49.1112 21.1663C47.1097 21.8095 45.3852 23.0693 44.1617 24.7219Z" fill="black"/>
<path d="M60.1585 24.7278C58.9366 23.0748 57.2137 21.8141 55.2139 21.1692C55.7084 20.1144 56.7801 19.3839 58.0227 19.3839C59.7349 19.3839 61.1228 20.771 61.1228 22.4821C61.1228 23.366 60.7526 24.1634 60.1585 24.7278Z" fill="black"/>
<path d="M46.9577 27.813H46.9576C46.6945 28.3484 46.5117 28.9303 46.4251 29.5431C46.2767 29.6065 46.1133 29.6415 45.9418 29.6415C45.3316 29.6415 44.8249 29.1981 44.727 28.616C44.7223 28.5826 44.7182 28.5491 44.7143 28.5155L44.7142 28.514C44.6959 28.3536 44.6865 28.1905 44.6865 28.0252C44.6865 26.005 46.0881 24.3119 47.9723 23.8642C48.0767 23.8269 48.1891 23.8066 48.3063 23.8066C48.8544 23.8066 49.2988 24.2507 49.2988 24.7986C49.2988 25.1942 49.067 25.5358 48.7317 25.695L48.7323 25.6957C47.9829 26.2458 47.371 26.9719 46.9577 27.813Z" fill="black"/>
<path d="M57.3734 27.813H57.3735C57.6366 28.3484 57.8193 28.9303 57.9059 29.5431C58.0543 29.6065 58.2177 29.6415 58.3892 29.6415C58.9995 29.6415 59.506 29.1981 59.604 28.616C59.6087 28.5826 59.6129 28.5491 59.6167 28.5155L59.6169 28.514C59.6351 28.3536 59.6445 28.1905 59.6445 28.0252C59.6445 26.005 58.243 24.3119 56.3587 23.8642C56.2543 23.8269 56.1418 23.8066 56.0247 23.8066C55.4765 23.8066 55.0322 24.2507 55.0322 24.7986C55.0322 25.1942 55.2641 25.5358 55.5994 25.695L55.5987 25.6957C56.348 26.2458 56.96 26.9719 57.3734 27.813Z" fill="black"/>
<path d="M54.0966 26.5939C54.1915 26.4303 54.146 26.2232 53.9914 26.1141C53.4733 25.7486 52.8409 25.5338 52.1584 25.5338C51.4678 25.5338 50.8284 25.7537 50.3069 26.1274C50.1533 26.2373 50.1092 26.4443 50.2047 26.6072C50.5752 27.2399 51.1584 27.733 51.856 27.9889V28.71C51.586 28.8858 51.2635 28.988 50.9171 28.988C50.2595 28.988 49.688 28.6197 49.3978 28.0782C49.3588 27.9821 49.2645 27.9143 49.1543 27.9143C49.0092 27.9143 48.8916 28.032 48.8916 28.177C48.8916 28.23 48.9073 28.2793 48.9344 28.3206C49.095 28.6216 49.3219 28.8823 49.5983 29.0829C49.886 29.2919 50.2191 29.4298 50.5704 29.4854C50.9216 29.541 51.2811 29.5127 51.6193 29.4028C51.8044 29.3428 51.9803 29.2592 52.1429 29.1546C52.3053 29.2592 52.4813 29.3428 52.6664 29.4029C53.0046 29.5127 53.364 29.541 53.7153 29.4854C54.0665 29.4298 54.3996 29.2919 54.6874 29.0829C54.9638 28.8823 55.1907 28.6216 55.3512 28.3206C55.3783 28.2793 55.3941 28.23 55.3941 28.177C55.3941 28.032 55.2764 27.9144 55.1313 27.9144C55.0212 27.9144 54.9269 27.9821 54.8879 28.0782C54.5977 28.6197 54.0262 28.988 53.3686 28.988C53.0216 28.988 52.6985 28.8855 52.4283 28.7091V27.9924C53.1349 27.7357 53.7248 27.2357 54.0966 26.5939Z" fill="black"/>
<path d="M46.0901 40.4335L52.1511 30.3674L58.2095 40.4335L52.1535 43.9881L46.0901 40.4335Z" fill="#04D872"/>
<path d="M46.0901 40.4335L52.1511 30.3674L52.1535 43.9881L46.0901 40.4335Z" fill="#00FF85"/>
<path d="M46.0901 40.4335L52.1611 37.6068L58.2095 40.4335L52.1535 43.9881L46.0901 40.4335Z" fill="#12AF64"/>
<path d="M46.0901 40.4335L52.1611 37.6068L52.1535 43.9881L46.0901 40.4335Z" fill="#16D67A"/>
<path d="M52.151 50.0892L46.095 41.5291L52.1484 45.1437L58.2219 41.5291L52.151 50.0892Z" fill="#10CE73"/>
<path d="M52.151 50.0892L46.095 41.5291L52.1484 45.1437L52.151 50.0892Z" fill="#06E279"/>
<path fill-rule="evenodd" clip-rule="evenodd" d="M128.699 39.5898C129.203 39.9037 129.774 40.0607 130.411 40.0607C130.906 40.0607 131.353 39.9561 131.753 39.7468C131.992 39.6221 132.201 39.4705 132.382 39.2918V39.918H134.237V29.601H132.367V33.6257C132.186 33.4494 131.977 33.3017 131.739 33.1827C131.349 32.983 130.906 32.883 130.411 32.883C129.764 32.883 129.189 33.04 128.684 33.3539C128.19 33.6679 127.795 34.096 127.499 34.6383C127.214 35.1805 127.071 35.7941 127.071 36.4791C127.071 37.1544 127.214 37.7633 127.499 38.3055C127.795 38.8478 128.194 39.2759 128.699 39.5898ZM131.639 38.1058C131.382 38.258 131.078 38.3341 130.726 38.3341C130.392 38.3341 130.092 38.258 129.826 38.1058C129.56 37.9441 129.351 37.7253 129.199 37.4494C129.056 37.164 128.984 36.8358 128.984 36.4647C128.984 36.1033 129.056 35.7845 129.199 35.5086C129.351 35.2328 129.555 35.014 129.812 34.8522C130.079 34.6905 130.388 34.6097 130.74 34.6097C131.082 34.6097 131.382 34.6905 131.639 34.8522C131.905 35.0045 132.11 35.2233 132.252 35.5086C132.405 35.7845 132.482 36.1033 132.482 36.4647C132.482 36.8358 132.405 37.164 132.252 37.4494C132.11 37.7253 131.905 37.9441 131.639 38.1058Z" fill="black"/>
<path fill-rule="evenodd" clip-rule="evenodd" d="M137.075 39.5898C137.58 39.9038 138.146 40.0608 138.775 40.0608C139.269 40.0608 139.712 39.9608 140.102 39.7611C140.361 39.622 140.585 39.4513 140.773 39.2491V39.918H142.629V33.0258H140.773V33.6884C140.585 33.4841 140.361 33.3156 140.102 33.1827C139.712 32.983 139.269 32.8831 138.775 32.8831C138.146 32.8831 137.58 33.0401 137.075 33.354C136.572 33.6679 136.176 34.096 135.891 34.6383C135.605 35.1805 135.463 35.7941 135.463 36.4791C135.463 37.1544 135.605 37.7633 135.891 38.3055C136.176 38.8478 136.572 39.2759 137.075 39.5898ZM140.387 37.8204C140.064 38.1629 139.64 38.3341 139.117 38.3341C138.775 38.3341 138.47 38.258 138.204 38.1058C137.946 37.9441 137.742 37.7253 137.59 37.4494C137.447 37.164 137.375 36.8358 137.375 36.4647C137.375 36.1033 137.447 35.7846 137.59 35.5087C137.742 35.2234 137.946 35.0045 138.204 34.8523C138.47 34.6906 138.775 34.6097 139.117 34.6097C139.469 34.6097 139.774 34.6906 140.03 34.8523C140.297 35.0045 140.501 35.2234 140.644 35.5087C140.797 35.7846 140.873 36.1033 140.873 36.4647C140.873 37.0165 140.711 37.4684 140.387 37.8204Z" fill="black"/>
<path d="M124.124 39.918V35.9653C124.124 35.5563 123.996 35.2234 123.738 34.9664C123.481 34.7096 123.148 34.5812 122.739 34.5812C122.473 34.5812 122.235 34.6383 122.025 34.7524C121.816 34.8666 121.649 35.0283 121.525 35.2376C121.412 35.4469 121.355 35.6895 121.355 35.9653V39.918H119.485V33.0258H121.355V33.6717C121.525 33.4969 121.72 33.3482 121.94 33.2256C122.358 32.9972 122.829 32.8831 123.353 32.8831C123.857 32.8831 124.309 33.0115 124.709 33.2684C125.108 33.5157 125.423 33.8439 125.651 34.2529C125.879 34.6525 125.994 35.0854 125.994 35.5515V39.918H124.124Z" fill="black"/>
<path fill-rule="evenodd" clip-rule="evenodd" d="M112.278 39.5898C112.782 39.9038 113.349 40.0608 113.977 40.0608C114.471 40.0608 114.914 39.9608 115.304 39.7611C115.563 39.622 115.787 39.4513 115.975 39.2491V39.918H117.83V33.0258H115.975V33.6884C115.787 33.4841 115.563 33.3156 115.304 33.1827C114.914 32.983 114.471 32.8831 113.977 32.8831C113.349 32.8831 112.782 33.0401 112.278 33.354C111.774 33.6679 111.379 34.096 111.093 34.6383C110.808 35.1805 110.665 35.7941 110.665 36.4791C110.665 37.1544 110.808 37.7633 111.093 38.3055C111.379 38.8478 111.774 39.2759 112.278 39.5898ZM115.59 37.8204C115.266 38.1629 114.843 38.3341 114.319 38.3341C113.977 38.3341 113.672 38.258 113.406 38.1058C113.149 37.9441 112.944 37.7253 112.792 37.4494C112.649 37.164 112.578 36.8358 112.578 36.4647C112.578 36.1033 112.649 35.7846 112.792 35.5087C112.944 35.2234 113.149 35.0045 113.406 34.8523C113.672 34.6906 113.977 34.6097 114.319 34.6097C114.671 34.6097 114.976 34.6906 115.233 34.8523C115.499 35.0045 115.704 35.2234 115.846 35.5087C115.999 35.7846 116.075 36.1033 116.075 36.4647C116.075 37.0165 115.913 37.4684 115.59 37.8204Z" fill="black"/>
<path fill-rule="evenodd" clip-rule="evenodd" d="M104.759 39.918V36.1936H106.772C107.409 36.1936 107.98 36.0652 108.485 35.8083C108.998 35.5515 109.403 35.19 109.698 34.7238C109.993 34.2482 110.14 33.6869 110.14 33.04C110.14 32.3931 109.993 31.8366 109.698 31.3705C109.403 30.8948 108.998 30.5286 108.485 30.2717C107.98 30.0148 107.409 29.8864 106.772 29.8864H102.818V39.918H104.759ZM106.572 34.6097H104.759V31.4704H106.572C106.876 31.4704 107.152 31.5322 107.4 31.6559C107.647 31.7795 107.842 31.9603 107.985 32.1981C108.128 32.4359 108.199 32.7166 108.199 33.04C108.199 33.373 108.128 33.6584 107.985 33.8962C107.842 34.1245 107.647 34.3005 107.4 34.4242C107.152 34.5479 106.876 34.6097 106.572 34.6097Z" fill="black"/>
<path d="M92.531 29.8864V39.918H94.4722V35.5943H98.8257V39.918H100.767V29.8864H98.8257V33.8819H94.4722V29.8864H92.531Z" fill="black"/>
<path d="M86.0376 39.918V31.613H82.8403V29.8864H91.1904V31.613H87.9932V39.918H86.0376Z" fill="black"/>
<path d="M75.2881 29.8864V39.918H82.2679V38.2057H77.2293V35.6228H81.7684V33.9676H77.2293V31.5988H82.1966V29.8864H75.2881Z" fill="black"/>
</g>
<defs>
<clipPath id="clip0_17_119">
<rect width="180" height="70" fill="white"/>
</clipPath>
</defs>
</svg>
