<svg width="180" height="70" viewBox="0 0 180 70" fill="none" xmlns="http://www.w3.org/2000/svg">
<rect x="0.25" y="0.25" width="179.5" height="69.5" rx="5.75" fill="white" stroke="#E8E8E8" stroke-width="0.5"/>
<path d="M98.3116 14.9137C99.6449 14.8536 101.034 14.8885 102.273 15.4436C103.546 16.0181 104.582 17.2279 104.724 18.6454C104.823 19.6355 104.766 20.7295 104.119 21.5429C103.277 22.6651 101.751 22.9835 100.419 22.9516C100.931 22.0424 101.32 21.0523 101.474 20.0162C101.611 18.7219 101.572 17.2449 100.633 16.2333C99.633 15.1334 97.8628 15.2581 96.6767 15.9713C95.5114 16.7328 94.8002 18.0042 94.332 19.2815C93.6342 21.2602 93.4068 23.3628 93.1482 25.4335C93.062 26.1734 92.9862 26.9164 92.926 27.6593C92.8933 27.8077 92.897 27.9599 92.8873 28.1113C92.8539 28.2545 92.8613 28.403 92.8539 28.5492C92.8123 28.6998 92.8234 28.8564 92.8234 29.0116L92.7848 29.0739C92.787 29.2201 92.7878 29.3671 92.7818 29.514C92.7224 29.7122 92.7744 29.923 92.7209 30.1226C92.7201 30.421 92.6614 30.7164 92.6748 31.0155L92.6369 31.0786C92.6369 31.1995 92.6369 31.3212 92.6332 31.4437C92.5849 31.7131 92.5767 31.9877 92.5544 32.2609C92.5009 32.6594 92.489 33.0639 92.4236 33.4617C92.4162 33.5552 92.4125 33.6502 92.408 33.7452C92.0743 36.6665 91.2108 39.6211 89.3633 41.9605C87.6436 44.1492 85.0805 45.7034 82.3018 46.0633C80.4373 46.2845 78.5021 46.2741 76.7044 45.6729C76.6732 42.2106 76.7386 38.7431 76.6665 35.283C78.6448 34.9402 80.6245 34.6084 82.6058 34.2803C82.6103 37.9705 82.5976 41.6607 82.6125 45.3508C84.4146 44.7593 85.8281 43.3447 86.7504 41.7245C87.99 39.5306 88.5443 37.0302 88.9159 34.5609C88.9196 34.4911 88.9241 34.4221 88.93 34.3531C88.965 34.1564 88.9865 33.9575 89.0081 33.7593C89.0356 33.6317 89.0334 33.5003 89.0363 33.3719L89.072 33.3088C89.0712 33.2116 89.0727 33.1144 89.0765 33.0179C89.1248 32.8427 89.0935 32.6579 89.1374 32.4828C89.2229 31.296 89.2912 30.1048 89.3626 28.9203C89.3648 28.5484 89.3893 28.1766 89.4332 27.8077C89.4495 27.4641 89.4986 27.1234 89.5268 26.7813C89.8241 24.4575 90.3093 22.1196 91.3765 20.0162C92.2497 18.2721 93.574 16.7046 95.3093 15.7739C96.2315 15.2677 97.269 15.0117 98.3116 14.9137Z" fill="#D75D00"/>
<path d="M104.591 21.7909C105.1 21.2669 105.893 21.0865 106.591 21.2617C107.4 21.5237 107.942 22.3623 107.935 23.1995C107.927 24.1443 107.307 25.0869 106.4 25.3949C105.643 25.5649 104.779 25.3556 104.252 24.7641C103.598 23.8831 103.769 22.5115 104.591 21.7909Z" fill="#D75D00"/>
<path d="M110.702 31.3627C112.01 30.5122 113.531 29.8643 115.119 29.9288C115.88 29.9028 116.674 30.0461 117.316 30.4751C118.027 30.9812 118.407 31.8103 118.634 32.6274C118.909 32.0277 119.204 31.4377 119.488 30.8417C120.8 30.7608 122.11 30.6599 123.423 30.5923C120.621 35.8159 118.155 41.2153 115.219 46.3698C118.724 45.2483 121.59 42.7546 123.976 40.0359C125.724 36.9187 127.445 33.7823 129.052 30.5894C130.519 30.5166 131.99 30.4669 133.459 30.4127C131.818 33.0163 130.111 35.5828 128.501 38.2035C128.838 37.8435 129.078 37.4056 129.381 37.0167C130.877 34.8607 132.576 32.7989 134.705 31.2373C135.701 30.4973 136.878 29.8643 138.157 29.9273C139.004 29.8605 139.885 30.2799 140.294 31.0384C140.997 32.2845 140.687 33.8402 140.136 35.0848C139.132 37.1496 137.755 38.9998 136.581 40.9659C135.982 41.9152 135.427 42.9713 135.452 44.1239C135.489 44.5113 135.639 44.9952 136.071 45.0932C136.498 45.2439 136.933 45.0264 137.298 44.8156C138.497 44.1328 139.459 43.1271 140.391 42.1296C142.634 39.6686 144.59 36.9692 146.569 34.2981C146.711 34.3775 146.855 34.4517 147 34.5289V34.5638C146.663 34.9171 146.403 35.3357 146.1 35.7171C144.225 38.2718 142.321 40.8152 140.154 43.1309C139.25 44.0437 138.319 44.9878 137.13 45.5229C136.242 45.9393 135.21 46.041 134.255 45.8309C133.247 45.5994 132.61 44.6212 132.433 43.6571C132.22 42.3857 132.613 41.0928 133.218 39.9803C134.322 37.8539 135.807 35.9584 137.02 33.8966C137.334 33.3325 137.577 32.7143 137.625 32.0656C137.658 31.5987 137.379 31.0755 136.89 30.9857C136.028 30.8402 135.255 31.3724 134.616 31.8815C132.279 33.8283 130.481 36.3161 128.758 38.7972C127.316 40.9087 125.987 43.1012 124.876 45.4049C123.584 45.4101 122.296 45.5014 121.005 45.5125C121.691 44.19 122.434 42.8971 123.128 41.5789C120.813 43.9361 118.093 46.0358 114.892 47.0147C113.688 49.3007 112.235 51.4768 110.437 53.3419C107.35 56.6097 102.959 58.8177 98.3979 58.6893C96.5036 58.7131 94.445 58.3902 92.9855 57.0847C91.9101 56.154 91.355 54.7171 91.4115 53.3085C91.3327 51.9911 91.8655 50.6544 92.8331 49.7549C93.7063 48.9221 94.8976 48.4657 96.0919 48.3729C96.9547 48.318 97.8041 48.4865 98.6595 48.5689C98.658 48.6876 98.6572 48.8071 98.658 48.9273C97.6034 48.9028 96.4969 49.2331 95.7493 50.002C94.8835 50.9483 94.5929 52.2805 94.6442 53.5311C94.5907 55.42 95.7106 57.435 97.6027 57.9768C99.5817 58.4912 101.686 57.8187 103.342 56.7092C105.499 55.282 107.168 53.2521 108.644 51.1576C110.78 48.1859 112.458 44.9255 114.324 41.7882C112.918 43.5049 111.229 45.1726 109.025 45.7753C107.878 46.0439 106.47 46.0773 105.595 45.1563C104.343 43.8152 104.257 41.8075 104.628 40.1042C103.277 41.6361 101.947 43.2103 100.317 44.4586C99.3996 45.1504 98.3548 45.73 97.2058 45.9074C96.543 45.9541 95.8303 45.9675 95.2417 45.6098C94.37 45.134 94.0014 44.0861 94.0103 43.1405C94.0185 41.7407 94.6293 40.4486 95.2179 39.2106C96.6931 36.3495 98.3473 33.5863 99.931 30.7853C101.257 30.6799 102.589 30.6361 103.917 30.5552C101.893 34.2424 99.5958 37.7856 97.8026 41.5953C97.4006 42.549 96.8469 43.6192 97.2296 44.6664C97.3998 45.1533 98.0144 45.0791 98.3956 44.9166C99.7214 44.3733 100.819 43.4047 101.806 42.3887C102.933 41.3028 103.916 40.0834 104.926 38.8922C105.934 35.8337 108.003 33.1269 110.702 31.3627ZM112.655 31.9973C111.122 33.478 110.03 35.3557 109.188 37.298C108.714 38.4684 108.283 39.6789 108.159 40.9444C108.079 41.9085 108.13 42.9371 108.594 43.8085C108.964 44.3859 109.726 44.5239 110.364 44.4705C111.13 44.3777 111.763 43.8901 112.317 43.3899C113.492 42.2929 114.385 40.9347 115.156 39.535C116.107 37.7611 116.902 35.873 117.247 33.881C117.366 33 117.365 32.0648 117.03 31.2277C116.833 30.7348 116.315 30.4187 115.788 30.4461C114.567 30.4461 113.49 31.1661 112.655 31.9973Z" fill="#D75D00"/>
<path d="M65.0672 37.2447C67.0314 36.8899 69.003 36.5767 70.9709 36.239C70.9813 39.3807 70.9723 42.5224 70.9753 45.6641C69.0059 45.6641 67.0366 45.6641 65.0672 45.6641C65.0665 42.8578 65.0672 40.0516 65.0672 37.2447Z" fill="#D75D00"/>
<path d="M56.4468 38.6934C57.4731 38.5079 58.5023 38.3409 59.5309 38.1687C59.5309 40.6669 59.5309 43.1651 59.5309 45.6641C58.5031 45.6641 57.476 45.6641 56.4483 45.6641C56.4453 43.3403 56.4483 41.0172 56.4468 38.6934Z" fill="#D75D00"/>
<path d="M65.0674 16.7559C67.0367 16.7559 69.0061 16.7552 70.9755 16.7559C70.9762 21.2046 70.974 25.6533 70.977 30.102C71.6458 29.2522 72.4558 28.4758 73.4606 28.0387C74.6452 27.5117 75.9866 27.4301 77.2618 27.58C79.2884 27.7589 81.2161 29.0057 82.0648 30.8738C82.5568 31.9352 82.6385 33.1271 82.6058 34.2805C80.6246 34.6085 78.6448 34.9403 76.6666 35.2832L76.6294 35.2899C76.5803 34.443 76.3477 33.5131 75.6536 32.9601C75.2293 32.6024 74.6556 32.5215 74.1205 32.5044C73.3283 32.5111 72.4729 32.7159 71.9297 33.3327C71.1932 34.1046 71.0126 35.2156 70.971 36.2391C69.0031 36.5768 67.0315 36.89 65.0674 37.2448C65.0674 30.4152 65.0674 23.5856 65.0674 16.7559Z" fill="#EB7217"/>
<path d="M56.4489 22.0996C57.4759 22.0996 58.5037 22.0996 59.5308 22.0996C59.5308 24.0419 59.5308 25.9835 59.5308 27.9258C60.6581 27.9258 61.7847 27.9258 62.9121 27.9258C62.9121 29.6573 62.9121 31.3896 62.9121 33.1211C61.7847 33.1211 60.6581 33.1211 59.5308 33.1211C59.5308 34.8036 59.5308 36.4862 59.5308 38.1687C58.5022 38.3409 57.473 38.5079 56.4467 38.6934C56.4482 33.1619 56.4437 27.6311 56.4489 22.0996Z" fill="#EB7217"/>
<path d="M35.5638 33.841C35.5631 28.95 35.5638 24.059 35.5638 19.168C40.2212 19.168 44.8778 19.168 49.5351 19.168C49.5351 21.1348 49.5351 23.1016 49.5351 25.0684C47.0084 25.0684 44.4817 25.0684 41.9549 25.0684C41.9549 26.5156 41.9549 27.9629 41.9549 29.4102C44.3457 29.4102 46.7357 29.4102 49.1264 29.4102C49.1264 31.3643 49.1264 33.3193 49.1264 35.2734C46.7349 35.2772 44.3434 35.266 41.952 35.2786C39.8087 34.8816 37.6989 34.2923 35.5638 33.841Z" fill="#FF8E39"/>
<path d="M53.6225 27.9258C53.6225 25.9835 53.6225 24.0412 53.6225 22.0996C54.5649 22.0996 55.5072 22.0996 56.4488 22.0996C56.4436 27.6311 56.448 33.1619 56.4465 38.6934C55.5035 38.4871 54.5701 38.2385 53.6225 38.0529C53.6218 36.409 53.6225 34.765 53.6225 33.1211C53.0027 33.1211 52.3837 33.1211 51.7646 33.1211C51.7646 31.3896 51.7646 29.6573 51.7646 27.9258C52.3837 27.9258 53.0027 27.9258 53.6225 27.9258Z" fill="#FF8E39"/>
<path d="M35.5638 33.8411C37.6989 34.2923 39.8087 34.8816 41.952 35.2787C41.9594 36.7861 41.9527 38.2934 41.9549 39.8008C44.4817 39.8008 47.0084 39.8008 49.5351 39.8008C49.5359 41.7676 49.5351 43.7344 49.5351 45.7012C44.8778 45.7012 40.2212 45.7012 35.5638 45.7012C35.5638 41.7476 35.5631 37.7947 35.5638 33.8411Z" fill="#E98234"/>
<path d="M53.6224 38.053C54.5699 38.2385 55.5033 38.4872 56.4464 38.6935C56.4479 41.0173 56.4449 43.3403 56.4479 45.6641C55.5063 45.6641 54.564 45.6641 53.6224 45.6641C53.6224 43.1273 53.6217 40.5905 53.6224 38.053Z" fill="#E98234"/>
</svg>
