<svg width="181" height="71" viewBox="0 0 181 71" fill="none" xmlns="http://www.w3.org/2000/svg">
<path d="M174.75 1H6.75C3.57436 1 1 3.57436 1 6.75V64.75C1 67.9256 3.57436 70.5 6.75 70.5H174.75C177.926 70.5 180.5 67.9256 180.5 64.75V6.75C180.5 3.57436 177.926 1 174.75 1Z" fill="white" stroke="#E8E8E8" stroke-width="0.5"/>
<path d="M62.9682 34.724V23.3313H71.1138V25.1747H65.1162V28.2305H70.5191V30.0739H65.1162V34.7239L62.9682 34.724Z" fill="black"/>
<path fill-rule="evenodd" clip-rule="evenodd" d="M73.2608 24.6407V22.7143H75.2764V24.6407H73.2608ZM73.2608 34.7198V25.9844H75.2764V34.7198H73.2608Z" fill="black"/>
<path d="M77.8376 34.7213V22.7143H79.8535V34.7213H77.8376Z" fill="black"/>
<path fill-rule="evenodd" clip-rule="evenodd" d="M86.1464 34.9225C85.2214 34.9225 84.4504 34.759 83.8334 34.4325C83.2164 34.106 82.7539 33.605 82.4458 32.9296C82.1373 32.2542 81.9829 31.396 81.9829 30.3554C81.9829 29.3035 82.1373 28.4429 82.4458 27.7728C82.7539 27.103 83.2164 26.6048 83.8334 26.2781C84.4504 25.9519 85.2214 25.7882 86.1464 25.7882C86.9835 25.7882 87.6857 25.946 88.253 26.2616C88.8203 26.5771 89.2469 27.0616 89.5335 27.7147C89.8199 28.368 89.9633 29.215 89.9633 30.2555V30.8536H84.0482C84.0702 31.396 84.1528 31.8527 84.296 32.2238C84.439 32.5949 84.662 32.8711 84.9655 33.0541C85.268 33.2368 85.6676 33.3278 86.1632 33.3278C86.4162 33.3278 86.6531 33.2949 86.8735 33.2283C87.094 33.1619 87.2866 33.0598 87.4518 32.9211C87.6169 32.7829 87.7464 32.6085 87.84 32.398C87.9335 32.1878 87.9807 31.9442 87.9807 31.6672H89.9633C89.9633 32.2212 89.8665 32.7026 89.6741 33.1122C89.4812 33.5219 89.2114 33.8595 88.8646 34.1252C88.5176 34.3909 88.1127 34.5903 87.6502 34.723C87.1874 34.8561 86.686 34.9225 86.1464 34.9225ZM84.0811 29.4246H87.8649C87.8649 29.0593 87.8234 28.7496 87.7408 28.4947C87.6583 28.24 87.5427 28.0298 87.394 27.8637C87.2451 27.6976 87.0661 27.5785 86.8571 27.5067C86.6476 27.4346 86.411 27.3986 86.1464 27.3986C85.7169 27.3986 85.3562 27.4706 85.0644 27.6145C84.7723 27.7586 84.5494 27.9798 84.395 28.2789C84.2409 28.5776 84.1362 28.9598 84.0811 29.4246Z" fill="black"/>
<path d="M95.7145 34.9225C94.8112 34.9225 94.0593 34.759 93.4591 34.4325C92.8587 34.106 92.41 33.605 92.1126 32.9296C91.8152 32.2542 91.6664 31.396 91.6664 30.3554C91.6664 29.3035 91.818 28.4429 92.1208 27.7728C92.4236 27.103 92.8754 26.6048 93.4757 26.2781C94.0757 25.9519 94.8222 25.7882 95.7145 25.7882C96.2982 25.7882 96.8158 25.8603 97.2677 26.0041C97.7191 26.1482 98.1073 26.367 98.4323 26.6602C98.7572 26.9536 99.0024 27.3161 99.1676 27.7478C99.333 28.1796 99.4154 28.6838 99.4154 29.259H97.3667C97.3667 28.8497 97.306 28.5118 97.185 28.246C97.0636 27.9804 96.8793 27.7786 96.6316 27.6398C96.3837 27.5016 96.0668 27.4323 95.6816 27.4323C95.2297 27.4323 94.8606 27.5376 94.5744 27.7478C94.2878 27.9584 94.0758 28.271 93.9383 28.6863C93.8006 29.1016 93.7317 29.6247 93.7317 30.2555V30.4715C93.7317 31.0917 93.8006 31.6119 93.9383 32.0328C94.0758 32.4536 94.2936 32.7661 94.5908 32.971C94.8883 33.1762 95.2791 33.2783 95.7641 33.2783C96.1384 33.2783 96.4495 33.2093 96.6975 33.0706C96.9453 32.9322 97.1353 32.7247 97.2677 32.4479C97.3997 32.1713 97.4657 31.8391 97.4657 31.4516H99.4154C99.4154 31.9941 99.333 32.4811 99.1676 32.9127C99.0024 33.3449 98.7601 33.71 98.4406 34.0091C98.1211 34.3079 97.7326 34.5349 97.2757 34.6899C96.8187 34.8447 96.2982 34.9225 95.7145 34.9225Z" fill="black"/>
<path fill-rule="evenodd" clip-rule="evenodd" d="M105.411 34.9225C104.464 34.9225 103.671 34.759 103.032 34.4325C102.393 34.106 101.914 33.605 101.595 32.9296C101.275 32.2542 101.116 31.396 101.116 30.3554C101.116 29.3035 101.275 28.4429 101.595 27.7728C101.914 27.103 102.393 26.6048 103.032 26.2781C103.671 25.9519 104.464 25.7882 105.411 25.7882C106.37 25.7882 107.165 25.9519 107.799 26.2781C108.432 26.6048 108.908 27.103 109.228 27.7728C109.547 28.4429 109.707 29.3035 109.707 30.3554C109.707 31.396 109.547 32.2542 109.228 32.9296C108.908 33.605 108.432 34.106 107.799 34.4325C107.165 34.759 106.37 34.9225 105.411 34.9225ZM105.412 33.2623C105.94 33.2623 106.367 33.1598 106.692 32.9547C107.017 32.7501 107.254 32.4401 107.403 32.0248C107.551 31.6096 107.626 31.0922 107.626 30.472V30.2395C107.626 29.6195 107.551 29.102 107.403 28.6867C107.254 28.2714 107.017 27.9617 106.692 27.7568C106.367 27.5521 105.94 27.4496 105.412 27.4496C104.883 27.4496 104.456 27.5521 104.131 27.7568C103.807 27.9617 103.57 28.2714 103.421 28.6867C103.272 29.102 103.198 29.6195 103.198 30.2395V30.472C103.198 31.0922 103.272 31.6096 103.421 32.0248C103.57 32.4401 103.807 32.7501 104.131 32.9547C104.456 33.1598 104.883 33.2623 105.412 33.2623Z" fill="black"/>
<path fill-rule="evenodd" clip-rule="evenodd" d="M111.839 24.6407V22.7143H113.855V24.6407H111.839ZM111.839 34.7198V25.9844H113.855V34.7198H111.839Z" fill="black"/>
<path d="M116.416 34.723V25.9876H118.1L118.265 27.1501H118.381C118.58 26.8843 118.814 26.6492 119.083 26.4443C119.353 26.2396 119.662 26.079 120.009 25.9626C120.356 25.8464 120.739 25.7882 121.157 25.7882C121.708 25.7882 122.195 25.888 122.619 26.0871C123.043 26.2866 123.376 26.6078 123.619 27.0505C123.861 27.4931 123.982 28.0858 123.982 28.8273V34.723H121.95V29.193C121.95 28.8829 121.914 28.6256 121.842 28.4205C121.771 28.2159 121.666 28.0498 121.529 27.9224C121.391 27.7953 121.223 27.7037 121.025 27.6482C120.826 27.5931 120.606 27.5652 120.364 27.5652C120 27.5652 119.673 27.654 119.381 27.8309C119.089 28.0083 118.858 28.252 118.687 28.5617C118.516 28.8718 118.431 29.2318 118.431 29.6411V34.723H116.416Z" fill="black"/>
<path d="M62.9682 49.6697V38.2771H71.1138V40.1205H65.1162V43.1763H70.5191V45.0197H65.1162V49.6697H62.9682Z" fill="black"/>
<path fill-rule="evenodd" clip-rule="evenodd" d="M76.6334 49.8699C75.686 49.8699 74.8928 49.7064 74.2542 49.3798C73.6153 49.0535 73.1361 48.5522 72.8166 47.877C72.4971 47.2015 72.3377 46.3433 72.3377 45.3029C72.3377 44.2509 72.4971 43.3904 72.8166 42.7202C73.1361 42.0504 73.6153 41.5521 74.2542 41.2255C74.8928 40.8991 75.686 40.7357 76.6334 40.7357C77.5915 40.7357 78.3873 40.8991 79.0206 41.2255C79.6539 41.5521 80.1302 42.0504 80.4499 42.7202C80.769 43.3904 80.9291 44.2509 80.9291 45.3029C80.9291 46.3433 80.769 47.2015 80.4499 47.877C80.1302 48.5522 79.6539 49.0535 79.0206 49.3798C78.3873 49.7064 77.5915 49.8699 76.6334 49.8699ZM76.634 48.2096C77.1625 48.2096 77.5892 48.107 77.9144 47.902C78.2392 47.6973 78.476 47.3873 78.6247 46.9722C78.7735 46.5569 78.8477 46.0395 78.8477 45.4193V45.1868C78.8477 44.5669 78.7735 44.0492 78.6247 43.6341C78.476 43.2189 78.2392 42.9091 77.9144 42.704C77.5892 42.4994 77.1625 42.397 76.634 42.397C76.1051 42.397 75.6783 42.4994 75.3535 42.704C75.0283 42.9091 74.7917 43.2189 74.6429 43.6341C74.4941 44.0492 74.42 44.5669 74.42 45.1868V45.4193C74.42 46.0395 74.4941 46.5569 74.6429 46.9722C74.7917 47.3873 75.0283 47.6973 75.3535 47.902C75.6783 48.107 76.1051 48.2096 76.634 48.2096Z" fill="black"/>
<path d="M85.8175 49.8684C84.9804 49.8684 84.3002 49.6387 83.777 49.1791C83.2536 48.7198 82.9922 47.9366 82.9922 46.8291V40.9334H85.0077V46.4639C85.0077 46.774 85.0436 47.0313 85.1153 47.2358C85.1869 47.4409 85.2914 47.6069 85.4291 47.7342C85.5668 47.8616 85.7348 47.9531 85.9332 48.0082C86.1315 48.0637 86.3516 48.0912 86.5942 48.0912C86.9576 48.0912 87.285 48.0026 87.5771 47.8256C87.8689 47.6486 88.1002 47.402 88.271 47.0867C88.4415 46.7712 88.5271 46.414 88.5271 46.0153V40.9334H90.5427V49.669H88.8741L88.7088 48.5065H88.5934C88.3949 48.7722 88.1608 49.0075 87.8912 49.2122C87.6211 49.4173 87.3127 49.5777 86.9659 49.694C86.6187 49.81 86.236 49.8684 85.8175 49.8684Z" fill="black"/>
<path d="M93.1038 49.6688V40.9331H94.7892L94.9546 42.0959H95.07C95.2681 41.8301 95.502 41.595 95.7722 41.3899C96.042 41.1853 96.3505 41.0247 96.6975 40.9084C97.0443 40.7922 97.427 40.734 97.846 40.734C98.3965 40.734 98.8837 40.8336 99.3081 41.0329C99.7317 41.2324 100.065 41.5535 100.307 41.9962C100.55 42.4389 100.671 43.0316 100.671 43.7731V49.6688H98.6387V44.1387C98.6387 43.8287 98.6029 43.5714 98.5313 43.3663C98.4597 43.1617 98.355 42.9956 98.2176 42.8682C98.0795 42.7411 97.9117 42.6495 97.7136 42.594C97.5155 42.5389 97.2947 42.5109 97.0527 42.5109C96.6894 42.5109 96.3615 42.5998 96.0697 42.7767C95.7778 42.9541 95.5464 43.1976 95.3757 43.5075C95.2049 43.8175 95.1198 44.1776 95.1198 44.5869V49.6688H93.1038Z" fill="black"/>
<path fill-rule="evenodd" clip-rule="evenodd" d="M106.188 49.8714C105.483 49.8714 104.871 49.7105 104.354 49.3897C103.836 49.0686 103.437 48.5704 103.156 47.895C102.875 47.2198 102.735 46.3503 102.735 45.2874C102.735 44.2358 102.878 43.375 103.164 42.7051C103.451 42.0353 103.847 41.54 104.354 41.2185C104.86 40.8977 105.433 40.7371 106.072 40.7371C106.469 40.7371 106.832 40.7813 107.162 40.8699C107.493 40.9588 107.785 41.094 108.038 41.277C108.292 41.4597 108.506 41.6838 108.683 41.9493H108.782V37.6649H110.797V49.6719H109.129L108.963 48.5094H108.848C108.572 48.9636 108.201 49.3041 107.733 49.5309C107.264 49.7576 106.749 49.8714 106.188 49.8714ZM106.816 48.1265C107.279 48.1265 107.653 48.0214 107.94 47.8109C108.226 47.6007 108.438 47.2962 108.576 46.8976C108.713 46.4988 108.782 46.0117 108.782 45.436V45.2202C108.782 44.7882 108.743 44.4009 108.666 44.0577C108.589 43.7145 108.471 43.4265 108.311 43.1939C108.151 42.9612 107.948 42.7846 107.7 42.6625C107.452 42.5409 107.157 42.4799 106.816 42.4799C106.32 42.4799 105.926 42.577 105.635 42.7706C105.343 42.9643 105.133 43.2634 105.007 43.6673C104.88 44.0717 104.817 44.5836 104.817 45.2034V45.436C104.817 46.0451 104.88 46.5487 105.007 46.9472C105.133 47.3458 105.343 47.6423 105.635 47.8358C105.926 48.0296 106.32 48.1265 106.816 48.1265Z" fill="black"/>
<path fill-rule="evenodd" clip-rule="evenodd" d="M115.589 49.8699C115.348 49.8699 115.069 49.8391 114.756 49.7784C114.442 49.7175 114.139 49.6039 113.847 49.4378C113.555 49.2718 113.315 49.0255 113.128 48.6989C112.94 48.3727 112.847 47.9431 112.847 47.4118C112.847 46.814 112.98 46.3188 113.244 45.9255C113.508 45.5324 113.88 45.2223 114.359 44.9953C114.838 44.7685 115.411 44.6079 116.078 44.514C116.744 44.4198 117.473 44.3726 118.267 44.3726V43.6586C118.267 43.4039 118.228 43.1769 118.151 42.9778C118.073 42.7783 117.933 42.6207 117.73 42.5041C117.526 42.388 117.22 42.3299 116.812 42.3299C116.405 42.3299 116.086 42.3795 115.854 42.4794C115.623 42.579 115.463 42.701 115.376 42.8447C115.287 42.9888 115.242 43.1384 115.242 43.293V43.5255H113.293C113.282 43.4704 113.277 43.4149 113.277 43.3596V43.1602C113.277 42.6621 113.425 42.2304 113.723 41.8649C114.02 41.4996 114.433 41.2201 114.962 41.0264C115.491 40.8327 116.102 40.7357 116.796 40.7357C117.589 40.7357 118.242 40.8463 118.754 41.0678C119.266 41.2894 119.649 41.6049 119.902 42.0144C120.155 42.424 120.282 42.9222 120.282 43.5091V47.6279C120.282 47.838 120.343 47.9876 120.464 48.0761C120.585 48.165 120.717 48.2091 120.86 48.2091H121.389V49.6039C121.279 49.6483 121.119 49.7008 120.91 49.7618C120.7 49.8224 120.442 49.8531 120.133 49.8531C119.847 49.8531 119.591 49.806 119.365 49.7118C119.139 49.6182 118.949 49.4823 118.795 49.3051C118.641 49.128 118.531 48.9175 118.464 48.6739H118.366C118.178 48.9064 117.955 49.1141 117.696 49.2967C117.438 49.4794 117.135 49.6208 116.788 49.7203C116.441 49.8199 116.041 49.8699 115.589 49.8699ZM116.202 48.2076C116.532 48.2076 116.826 48.1576 117.086 48.058C117.344 47.9584 117.559 47.8198 117.73 47.6428C117.9 47.4657 118.033 47.25 118.127 46.9951C118.22 46.7404 118.267 46.4638 118.267 46.1647V45.766C117.661 45.766 117.102 45.8049 116.59 45.8825C116.078 45.96 115.669 46.1039 115.367 46.3143C115.064 46.5248 114.913 46.8235 114.913 47.211C114.913 47.4102 114.959 47.5847 115.053 47.734C115.147 47.8835 115.29 47.9999 115.482 48.083C115.675 48.166 115.915 48.2076 116.202 48.2076Z" fill="black"/>
<path d="M125.255 49.8669C124.715 49.8669 124.291 49.7589 123.983 49.5429C123.674 49.3271 123.456 49.0505 123.33 48.7126C123.203 48.3748 123.14 48.029 123.14 47.6745V42.5927H122.1V40.9318H123.189L123.553 38.4908H125.156V40.9318H126.66V42.5927H125.156V47.4754C125.156 47.7078 125.216 47.888 125.338 48.0151C125.459 48.1425 125.64 48.2062 125.883 48.2062H126.66V49.601C126.549 49.6454 126.414 49.6866 126.255 49.7255C126.095 49.7645 125.927 49.7976 125.75 49.8255C125.575 49.8527 125.409 49.8669 125.255 49.8669Z" fill="black"/>
<path fill-rule="evenodd" clip-rule="evenodd" d="M128.559 39.5913V37.6649H130.575V39.5913H128.559ZM128.559 49.6705V40.9349H130.575V49.6705H128.559Z" fill="black"/>
<path fill-rule="evenodd" clip-rule="evenodd" d="M137.002 49.8699C136.054 49.8699 135.261 49.7064 134.623 49.3798C133.984 49.0535 133.504 48.5522 133.185 47.877C132.865 47.2015 132.706 46.3433 132.706 45.3029C132.706 44.2509 132.865 43.3904 133.185 42.7202C133.504 42.0504 133.984 41.5521 134.623 41.2255C135.261 40.8991 136.054 40.7357 137.002 40.7357C137.96 40.7357 138.756 40.8991 139.389 41.2255C140.023 41.5521 140.499 42.0504 140.818 42.7202C141.138 43.3904 141.297 44.2509 141.297 45.3029C141.297 46.3433 141.138 47.2015 140.818 47.877C140.499 48.5522 140.023 49.0535 139.389 49.3798C138.756 49.7064 137.96 49.8699 137.002 49.8699ZM137.002 48.2096C137.531 48.2096 137.958 48.107 138.282 47.902C138.607 47.6973 138.845 47.3873 138.993 46.9722C139.142 46.5569 139.216 46.0395 139.216 45.4193V45.1868C139.216 44.5669 139.142 44.0492 138.993 43.6341C138.845 43.2189 138.607 42.9091 138.282 42.704C137.958 42.4994 137.531 42.397 137.002 42.397C136.473 42.397 136.047 42.4994 135.722 42.704C135.397 42.9091 135.16 43.2189 135.011 43.6341C134.863 44.0492 134.789 44.5669 134.789 45.1868V45.4193C134.789 46.0395 134.863 46.5569 135.011 46.9722C135.16 47.3873 135.397 47.6973 135.722 47.902C136.047 48.107 136.473 48.2096 137.002 48.2096Z" fill="black"/>
<path d="M143.428 49.6688V40.9331H145.113L145.278 42.0959H145.393C145.592 41.8301 145.825 41.595 146.096 41.3899C146.366 41.1853 146.674 41.0247 147.021 40.9084C147.368 40.7922 147.75 40.734 148.17 40.734C148.72 40.734 149.207 40.8336 149.632 41.0329C150.056 41.2324 150.389 41.5535 150.631 41.9962C150.873 42.4389 150.994 43.0316 150.994 43.7731V49.6688H148.962V44.1387C148.962 43.8287 148.927 43.5714 148.855 43.3663C148.783 43.1617 148.678 42.9956 148.541 42.8682C148.403 42.7411 148.235 42.6495 148.037 42.594C147.839 42.5389 147.618 42.5109 147.376 42.5109C147.013 42.5109 146.685 42.5998 146.393 42.7767C146.101 42.9541 145.87 43.1976 145.699 43.5075C145.529 43.8175 145.443 44.1776 145.443 44.5869V49.6688H143.428Z" fill="black"/>
<path d="M50.1592 17C49.6187 17 47.9611 17 45.9639 18.9027C44.101 20.6777 43.0678 23.8246 42.7948 24.7503L42.7785 24.8079L42.5731 25.4935C40.8003 25.5078 39.3913 26.0485 38.8923 26.3346C37.2645 27.1442 34.2773 29.7532 34.6214 33.8322C34.9628 37.8805 37.7861 39.9883 39.2652 40.5542C39.0193 41.6769 38.7139 42.7789 38.3896 43.9467L38.2996 44.2678C38.0347 45.1577 37.6919 46.0226 37.2753 46.8525C36.7483 47.9042 35.7925 48.3207 35.3601 48.3944C34.8691 48.4962 34.4791 48.4467 34.2088 48.2541C34.1091 48.1791 34.0256 48.0846 33.9637 47.9763C33.9017 47.8681 33.8625 47.7483 33.8485 47.6244C33.7224 46.5916 33.081 46.0429 32.7062 45.9384C32.2062 45.8098 31.7954 45.8665 31.4838 46.1067C31.3346 46.2314 31.2142 46.3868 31.1307 46.5622C31.0472 46.7377 31.0026 46.9291 31 47.1233C31 49.1024 33.4179 49.6423 34.6935 49.6531C35.234 49.6531 36.8915 49.6531 38.8887 47.7504C40.7435 45.9834 41.8903 42.7124 42.247 41.2001C46.5711 41.1633 48.88 38.342 49.498 36.8567C49.9682 36.0101 50.6691 33.6891 49.9349 30.9623C49.2097 28.2589 46.7621 26.654 45.5351 26.1664L45.8955 24.8088L45.9036 24.7746C46.0838 24.0801 46.2756 23.3802 46.4639 22.7055L46.554 22.3843C46.8187 21.4944 47.1615 20.6295 47.5783 19.7997C48.1052 18.748 49.0611 18.3315 49.4935 18.2577C49.9853 18.1596 50.3718 18.2091 50.6429 18.4052C50.7438 18.4797 50.8282 18.574 50.8911 18.6823C50.954 18.7906 50.994 18.9106 51.0087 19.035C51.1357 20.0677 51.7762 20.6165 52.1509 20.7209C52.6509 20.8495 53.0617 20.7928 53.3734 20.5527C53.5225 20.428 53.6429 20.2726 53.7264 20.0971C53.81 19.9217 53.8545 19.7303 53.8571 19.5361C53.8545 17.5506 51.4366 17.009 50.1592 17ZM42.1002 27.4555L39.6913 38.5732C38.1599 37.8112 35.6763 35.3669 36.8735 31.3599C37.205 30.1536 38.7238 27.7965 42.1002 27.4555ZM48.2521 34.497C47.4593 38.2484 44.4055 39.2173 42.7821 39.2173H42.7002L45.1325 28.0151C48.3764 29.907 48.5935 33.0773 48.2521 34.497Z" fill="black"/>
</svg>
