<svg width="180" height="70" viewBox="0 0 180 70" fill="none" xmlns="http://www.w3.org/2000/svg">
<g clip-path="url(#clip0_580_50)">
<path d="M174 0.25H6C2.82436 0.25 0.25 2.82436 0.25 6V64C0.25 67.1756 2.82436 69.75 6 69.75H174C177.176 69.75 179.75 67.1756 179.75 64V6C179.75 2.82436 177.176 0.25 174 0.25Z" fill="white" stroke="#E8E8E8" stroke-width="0.5"/>
<mask id="mask0_580_50" style="mask-type:luminance" maskUnits="userSpaceOnUse" x="5" y="-16" width="169" height="95">
<path d="M173.59 -15.6235H5.44601V79H173.59V-15.6235Z" fill="white"/>
</mask>
<g mask="url(#mask0_580_50)">
<path d="M38.0502 34.8073C38.0502 28.2975 42.8581 22.918 52.2724 22.918C56.5636 22.918 59.5499 23.8818 61.8181 25.1259V29.9622C59.7688 28.613 56.7212 27.6229 53.1044 27.6229C46.4049 27.6229 43.655 30.926 43.655 34.8949C43.655 39.1617 46.8252 42.1056 51.9221 42.1056C55.863 42.1056 58.3939 40.2744 58.8756 37.0415H47.8236V33.0638H63.7797V35.368C63.7797 42.7101 58.9456 46.6177 51.7032 46.6177C43.3047 46.6352 38.0502 41.5361 38.0502 34.8073Z" fill="black"/>
</g>
<mask id="mask1_580_50" style="mask-type:luminance" maskUnits="userSpaceOnUse" x="5" y="-16" width="169" height="95">
<path d="M173.59 -15.6235H5.44601V79H173.59V-15.6235Z" fill="white"/>
</mask>
<g mask="url(#mask1_580_50)">
<path d="M66.0742 34.8687C66.0742 27.9734 71.4251 22.8831 79.9198 22.8831C83.6067 22.8831 86.523 23.7767 88.7912 25.2224V30.0937C86.8645 28.6218 84.211 27.5266 80.8481 27.5266C75.2433 27.5266 71.8804 30.5406 71.8804 34.711C71.8804 38.8814 75.2783 41.9567 80.8831 41.9567C84.1234 41.9567 86.9346 40.8966 88.9225 39.2319V43.9105C86.234 45.838 83.344 46.6704 79.6921 46.6704C71.0747 46.6616 66.0742 41.5011 66.0742 34.8687Z" fill="black"/>
</g>
<mask id="mask2_580_50" style="mask-type:luminance" maskUnits="userSpaceOnUse" x="5" y="-16" width="169" height="95">
<path d="M173.59 -15.6235H5.44601V79H173.59V-15.6235Z" fill="white"/>
</mask>
<g mask="url(#mask2_580_50)">
<path d="M91.3044 34.8687C91.3044 27.9734 96.6553 22.8831 105.15 22.8831C108.837 22.8831 111.753 23.7767 114.021 25.2224V30.0937C112.095 28.6218 109.441 27.5266 106.078 27.5266C100.474 27.5266 97.1107 30.5406 97.1107 34.711C97.1107 38.8814 100.509 41.9567 106.113 41.9567C109.354 41.9567 112.165 40.8966 114.153 39.2319V43.9105C111.464 45.838 108.574 46.6704 104.922 46.6704C96.2962 46.6616 91.3044 41.5011 91.3044 34.8687Z" fill="black"/>
</g>
<mask id="mask3_580_50" style="mask-type:luminance" maskUnits="userSpaceOnUse" x="38" y="21" width="107" height="29">
<path d="M144.318 21.8175H38.8026V49.728H144.318V21.8175Z" fill="white"/>
</mask>
<g mask="url(#mask3_580_50)">
<path d="M131.817 47.0383C125.056 47.0383 119.556 41.5361 119.556 34.7723C119.556 28.0085 125.056 22.5063 131.817 22.5063C138.577 22.5063 144.077 28.0085 144.077 34.7723C144.077 41.5361 138.577 47.0383 131.817 47.0383ZM131.817 24.2498C126.019 24.2498 121.299 28.9723 121.299 34.7723C121.299 40.5724 126.019 45.2948 131.817 45.2948C137.614 45.2948 142.334 40.5724 142.334 34.7723C142.334 28.9723 137.623 24.2498 131.817 24.2498Z" fill="black"/>
</g>
<mask id="mask4_580_50" style="mask-type:luminance" maskUnits="userSpaceOnUse" x="36" y="18" width="109" height="32">
<path d="M144.318 18.4138H36.7602V49.728H144.318V18.4138Z" fill="white"/>
</mask>
<g mask="url(#mask4_580_50)">
<path d="M139.252 30.891C138.122 29.3928 135.81 29.8221 134.496 31.5569C133.603 32.7309 133.323 34.0889 133.323 34.0889C133.323 34.0889 133.139 33.4493 133.008 33.1514C132.71 32.4418 132.246 31.5744 131.247 30.5668C129.005 28.3151 125.844 28.6043 124.565 30.4354C123.252 32.3103 124.049 34.378 125.292 35.4207C126.65 36.5596 128.97 37.1291 131.615 36.0602C131.86 35.9639 132.316 35.7536 132.316 35.7536C132.316 35.7536 131.755 36.1391 131.466 36.3318C129.382 37.7074 129.023 39.8014 129.461 41.0805C129.978 42.5787 131.957 42.938 133.095 42.1407C134.207 41.3609 134.943 39.6437 134.356 36.7436C134.312 36.5509 134.085 35.9463 134.085 35.9463C134.085 35.9463 134.934 35.85 135.258 35.7886C136.274 35.5871 137.369 35.3681 138.341 34.7986C139.655 34.0101 140.268 32.2315 139.252 30.891ZM133.822 35.4031C133.734 35.4031 133.551 35.7361 133.559 35.8324C133.586 36.0427 133.533 38.3645 133.41 39.118C133.183 40.5373 132.333 41.4135 131.37 41.1331C130.407 40.8527 130.284 39.3633 131.002 38.1893C131.449 37.4533 132.929 35.885 133.025 35.7886C133.069 35.7536 132.981 35.4119 132.92 35.3681C132.754 35.2367 130.888 33.8699 129.583 32.9324C129.4 32.801 128.769 33.8524 128.953 33.9487C130.293 34.6234 131.79 35.3768 131.79 35.3768C131.79 35.3768 131.142 35.5521 130.976 35.5784C130.109 35.7185 128.594 35.7273 127.482 35.2279C126.387 34.7373 125.441 33.8261 125.537 32.5907C125.634 31.2765 126.79 30.3828 128.384 30.6632C129.925 30.9348 131.195 31.7496 133.069 34.9125C133.121 35.0001 133.507 35.0089 133.559 34.9037C133.84 34.2554 134.61 32.9412 135.539 32.1088C136.213 31.5043 137.597 30.9611 138.175 31.7584C138.744 32.5381 138.148 33.6333 136.896 34.2641C136.064 34.6935 133.971 35.4031 133.822 35.4031Z" fill="black"/>
</g>
</g>
<defs>
<clipPath id="clip0_580_50">
<rect width="180" height="70" fill="white"/>
</clipPath>
</defs>
</svg>
