<svg width="181" height="71" viewBox="0 0 181 71" fill="none" xmlns="http://www.w3.org/2000/svg">
<path d="M174.75 1H6.75C3.57436 1 1 3.57436 1 6.75V64.75C1 67.9256 3.57436 70.5 6.75 70.5H174.75C177.926 70.5 180.5 67.9256 180.5 64.75V6.75C180.5 3.57436 177.926 1 174.75 1Z" fill="white" stroke="#E8E8E8" stroke-width="0.5"/>
<path d="M60.1829 33.9945C59.9544 33.5595 59.6238 33.2302 59.191 33.0065C58.7702 32.7704 58.2712 32.6524 57.6941 32.6524C56.6963 32.6524 55.8967 32.9941 55.2956 33.6776C54.6945 34.3486 54.3939 35.2495 54.3939 36.3804C54.3939 37.5857 54.7065 38.5302 55.3316 39.2137C55.9689 39.8846 56.8405 40.2202 57.9467 40.2202C58.7041 40.2202 59.3413 40.0214 59.8582 39.6237C60.3873 39.2261 60.772 38.6544 61.0124 37.9089H57.0991V35.5602H63.8078V38.524C63.5793 39.3193 63.1886 40.0587 62.6355 40.7421C62.0945 41.4256 61.4032 41.9785 60.5616 42.4011C59.7199 42.8236 58.7702 43.0348 57.7122 43.0348C56.4618 43.0348 55.3437 42.7552 54.3578 42.1961C53.384 41.6244 52.6206 40.8353 52.0675 39.8287C51.5265 38.8222 51.2559 37.6727 51.2559 36.3804C51.2559 35.088 51.5265 33.9385 52.0675 32.932C52.6206 31.913 53.384 31.1239 54.3578 30.5647C55.3316 29.9931 56.4438 29.7072 57.6941 29.7072C59.2091 29.7072 60.4835 30.0863 61.5174 30.8443C62.5634 31.6023 63.2547 32.6524 63.5913 33.9945H60.1829Z" fill="#2772F5"/>
<path d="M70.7467 32.41V35.0569H74.8765V37.5174H70.7467V40.388H75.4175V42.9416H67.6628V29.8564H75.4175V32.41H70.7467Z" fill="#2772F5"/>
<path d="M88.6737 29.8564V32.41H85.3194V42.9416H82.2355V32.41H78.8812V29.8564H88.6737Z" fill="#2772F5"/>
<path d="M100.033 36.2312C100.766 36.3928 101.355 36.7718 101.8 37.3683C102.245 37.9524 102.468 38.6234 102.468 39.3814C102.468 40.475 102.095 41.3448 101.349 41.991C100.616 42.6248 99.588 42.9416 98.2656 42.9416H92.3684V29.8564H98.0671C99.3537 29.8564 100.357 30.1608 101.079 30.7697C101.812 31.3786 102.179 32.205 102.179 33.2488C102.179 34.0193 101.981 34.6592 101.584 35.1688C101.199 35.6782 100.682 36.0324 100.033 36.2312ZM95.4522 35.1501H97.4721C97.977 35.1501 98.3617 35.0383 98.6263 34.8146C98.9027 34.5785 99.041 34.2368 99.041 33.7894C99.041 33.342 98.9027 33.0003 98.6263 32.7642C98.3617 32.5281 97.977 32.41 97.4721 32.41H95.4522V35.1501ZM97.7245 40.3693C98.2415 40.3693 98.6383 40.2513 98.9148 40.0152C99.2033 39.7666 99.3476 39.4125 99.3476 38.9527C99.3476 38.4929 99.1973 38.1326 98.8968 37.8716C98.6082 37.6106 98.2054 37.4801 97.6885 37.4801H95.4522V40.3693H97.7245Z" fill="#2772F5"/>
<path d="M109.487 40.4812H113.527V42.9416H106.403V29.8564H109.487V40.4812Z" fill="#2772F5"/>
<path d="M123.132 43.0721C121.941 43.0721 120.848 42.7863 119.849 42.2147C118.864 41.6431 118.076 40.8477 117.487 39.8287C116.91 38.7973 116.621 37.6416 116.621 36.3617C116.621 35.0818 116.91 33.9323 117.487 32.9133C118.076 31.8943 118.864 31.099 119.849 30.5274C120.848 29.9558 121.941 29.67 123.132 29.67C124.322 29.67 125.41 29.9558 126.396 30.5274C127.394 31.099 128.175 31.8943 128.74 32.9133C129.318 33.9323 129.606 35.0818 129.606 36.3617C129.606 37.6416 129.318 38.7973 128.74 39.8287C128.163 40.8477 127.382 41.6431 126.396 42.2147C125.41 42.7863 124.322 43.0721 123.132 43.0721ZM123.132 40.1643C124.142 40.1643 124.947 39.8163 125.548 39.1205C126.161 38.4246 126.468 37.505 126.468 36.3617C126.468 35.206 126.161 34.2865 125.548 33.603C124.947 32.9071 124.142 32.5592 123.132 32.5592C122.11 32.5592 121.293 32.9009 120.68 33.5844C120.078 34.2678 119.777 35.1936 119.777 36.3617C119.777 37.5174 120.078 38.4432 120.68 39.1391C121.293 39.8225 122.11 40.1643 123.132 40.1643Z" fill="#2772F5"/>
<path d="M132.946 36.3804C132.946 35.088 133.216 33.9385 133.757 32.932C134.298 31.913 135.049 31.1239 136.011 30.5647C136.986 29.9931 138.086 29.7072 139.312 29.7072C140.815 29.7072 142.101 30.1173 143.171 30.9375C144.241 31.7576 144.956 32.876 145.317 34.2927H141.926C141.675 33.7459 141.313 33.3296 140.844 33.0438C140.388 32.758 139.864 32.6151 139.275 32.6151C138.326 32.6151 137.556 32.9568 136.967 33.6403C136.378 34.3237 136.083 35.2371 136.083 36.3804C136.083 37.5236 136.378 38.437 136.967 39.1205C137.556 39.8039 138.326 40.1457 139.275 40.1457C139.864 40.1457 140.388 40.0028 140.844 39.7169C141.313 39.4311 141.675 39.0149 141.926 38.468H145.317C144.956 39.8846 144.241 41.0031 143.171 41.8232C142.101 42.631 140.815 43.0348 139.312 43.0348C138.086 43.0348 136.986 42.7552 136.011 42.1961C135.049 41.6244 134.298 40.8353 133.757 39.8287C133.216 38.8222 132.946 37.6727 132.946 36.3804Z" fill="#2772F5"/>
<path d="M156.692 42.9416L152.436 37.1633V42.9416H149.353V29.8564H152.436V35.5974L156.656 29.8564H160.281L155.376 36.2685L160.462 42.9416H156.692Z" fill="#2772F5"/>
<path d="M32.5926 36.3711V49L22 42.8144V30.1854L32.5926 36.3711Z" fill="#2772F5"/>
<path opacity="0.25" d="M32.5927 36.3711L43.1854 30.1854V42.8144L32.5927 49V36.3711Z" fill="#2772F5"/>
<path opacity="0.5" d="M32.5926 24L43.1854 30.1856L32.5926 36.3713L22 30.1856L32.5926 24Z" fill="#2772F5"/>
</svg>
