<svg width="180" height="70" viewBox="0 0 180 70" fill="none" xmlns="http://www.w3.org/2000/svg">
<rect x="0.25" y="0.25" width="179.5" height="69.5" rx="5.75" fill="white" stroke="#E8E8E8" stroke-width="0.5"/>
<path d="M81.4255 28.6997H84.5123L81.7465 41.792H78.3387L79.9932 33.9613L76.1162 37.9631H74.5852L72.3874 33.7884L70.6835 41.792H67.251L70.0167 28.6997H72.8566L75.894 34.2331L81.4255 28.6997Z" fill="#FF3000"/>
<path d="M94.0691 32.1334H97.0571L95.0075 41.792H92.0442L92.2664 40.6804C91.328 41.545 90.1427 42.0391 88.7598 42.0391C85.8212 42.0391 84.2161 39.9146 84.8581 36.8021C85.4755 33.9119 87.6733 31.9604 90.3156 31.9604C91.8466 31.9604 93.0567 32.6027 93.674 33.7143L94.0691 32.1334ZM92.8591 36.9256C93.1554 35.4682 92.3899 34.5048 90.9823 34.5048C89.5254 34.5048 88.2907 35.5176 87.9943 36.9997C87.6733 38.4325 88.4388 39.4206 89.8711 39.4206C91.3034 39.3959 92.5381 38.4078 92.8591 36.9256Z" fill="#FF3000"/>
<path d="M107.034 32.306L105.725 35.2456C105.28 35.0727 104.885 34.9739 104.441 34.9739C102.984 34.9739 101.996 36.0114 101.601 37.8888L100.761 41.767H97.5264L99.576 32.1084H102.515L102.243 33.5411C103.157 32.4542 104.169 31.9849 105.453 31.9849C106.021 32.0096 106.564 32.1084 107.034 32.306Z" fill="#FF3000"/>
<path d="M105.799 40.7048L107.33 38.6298C108.293 39.2721 109.33 39.5932 110.441 39.5932C111.306 39.5932 111.8 39.3709 111.898 38.951C111.972 38.531 111.651 38.284 110.441 38.0123C108.095 37.4935 107.157 36.3819 107.503 34.7515C107.873 32.973 109.454 31.9849 111.824 31.9849C113.331 31.9849 114.788 32.4048 115.973 33.1706L114.467 35.1221C113.775 34.6527 112.639 34.3069 111.725 34.3069C110.96 34.3069 110.565 34.5045 110.491 34.8751C110.417 35.3444 110.738 35.5667 111.923 35.8632C114.294 36.4313 115.281 37.5182 114.936 39.1239C114.565 40.9519 112.787 41.9894 110.194 41.9894C108.491 41.9647 106.91 41.4706 105.799 40.7048Z" fill="#FF3000"/>
<path d="M124.344 28.6997C128.616 28.6997 130.962 31.4911 130.147 35.4435C129.332 39.3465 126.221 41.792 121.998 41.792H116.293L119.059 28.6997H124.344ZM123.578 31.6146H121.874L120.343 38.8771H121.998C124.541 38.8771 126.221 37.5432 126.739 35.2212C127.208 32.9238 126.072 31.6146 123.578 31.6146Z" fill="#FF3000"/>
<path d="M139.901 41.7674L139.556 39.6677H134.123L132.913 41.7674H129.135L137.16 28.675H140.716L143.161 41.7674H139.901ZM138.395 32.084L135.284 37.3456H139.21L138.395 32.084Z" fill="#FF3000"/>
<path d="M144.47 34.9738C145.26 31.145 148.742 28.4524 152.866 28.4524C157.089 28.4524 159.682 31.4908 158.842 35.4926C158.027 39.3215 154.57 42.014 150.446 42.014C146.223 42.014 143.63 39.0003 144.47 34.9738ZM155.41 35.1715C155.879 32.9482 154.693 31.392 152.52 31.392C150.323 31.392 148.372 33.0223 147.878 35.3197C147.433 37.5429 148.594 39.0992 150.742 39.0992C152.99 39.0992 154.94 37.4688 155.41 35.1715Z" fill="#FF3000"/>
<path d="M66.8558 25.1178C66.8558 25.1178 63.1023 24.6238 59.5216 29.2184C59.4969 29.2431 59.4722 29.2678 59.4475 29.2925C59.1512 29.6878 58.8302 30.1324 58.5339 30.6018C58.04 30.5277 57.3485 30.3548 57.3485 30.3548L55.7187 31.9604L57.3238 33.492C56.8052 34.0354 56.2126 34.6036 55.5458 35.1717C52.7554 37.5185 48.6314 39.9146 43.7914 41.792C39.5933 43.4224 35.5435 44.4352 32.1603 44.781C27.5425 45.2503 24.1841 44.5093 23.4186 42.5331C23.1716 41.9155 23.1963 41.2485 23.4433 40.5075C24.0112 38.8277 25.7398 36.8762 28.308 34.9494C28.308 35.0482 28.308 35.1717 28.308 35.2705C28.308 36.6045 28.5056 37.9137 28.876 39.1488C29.3699 40.8533 30.9256 42.0143 32.7036 41.9896C36.3831 41.9155 40.2601 41.1497 44.0383 39.5441C47.619 38.0372 50.7551 35.9622 53.3234 33.5414C54.5581 32.3804 54.8544 30.5277 54.0642 29.0208C53.5209 27.9833 52.8789 27.0199 52.1133 26.18C52.1133 26.1553 52.0886 26.1553 52.0639 26.1306C49.5698 23.3639 45.9645 21.6348 41.9393 21.6348C35.3706 21.6348 29.8638 26.3035 28.6044 32.5039C24.9249 34.6777 22.2332 37.1232 21.0232 39.4206C20.3318 40.7298 20.1342 41.9896 20.5046 43.1012C21.5912 46.3126 27.1721 47.5477 34.3334 46.5596C36.5065 48.0417 39.1241 48.8816 41.964 48.8816C48.508 48.8816 53.9901 44.2623 55.2742 38.0866C56.8299 36.1598 57.7189 35.4435 58.5832 34.7518L59.9414 36.1845L61.5466 34.5789C61.5466 34.5789 61.3737 33.9119 61.2996 33.3932C67.3991 29.589 66.8558 25.1178 66.8558 25.1178ZM63.6456 26.847C64.0407 26.4518 64.7074 26.4518 65.1025 26.847C65.4976 27.2422 65.4976 27.9092 65.1025 28.3044C64.7074 28.6997 64.0407 28.6997 63.6456 28.3044C63.2258 27.8845 63.2258 27.2422 63.6456 26.847Z" fill="url(#paint0_linear_739_173)"/>
<defs>
<linearGradient id="paint0_linear_739_173" x1="20.3057" y1="35.2359" x2="66.8639" y2="35.2359" gradientUnits="userSpaceOnUse">
<stop stop-color="#FF6D00"/>
<stop offset="1" stop-color="#FF3000"/>
</linearGradient>
</defs>
</svg>
