<svg width="181" height="71" viewBox="0 0 181 71" fill="none" xmlns="http://www.w3.org/2000/svg">
<path d="M174.75 1H6.75C3.57436 1 1 3.57436 1 6.75V64.75C1 67.9256 3.57436 70.5 6.75 70.5H174.75C177.926 70.5 180.5 67.9256 180.5 64.75V6.75C180.5 3.57436 177.926 1 174.75 1Z" fill="white" stroke="#E8E8E8" stroke-width="0.5"/>
<path d="M99.1428 27.4286V47.3333H101.857V49.1429H92.8095V47.3333H95.5238V29.2381H95.2523L87.8333 45.1438L80.4143 29.2381V47.3333H82.8571V49.1429H75.619V47.3333H78.0619V27.4286H75.619V25.619H82.8571L88.7381 38.2314L94.619 25.619H101.857V27.4286H99.1428Z" fill="black"/>
<path d="M113.167 49.1429V47.3333H110.905V31.0476L107.286 31.5905L104.933 31.9524V33.7619L107.286 34.1238V47.3333H104.933V49.1429H113.167Z" fill="black"/>
<path d="M135.062 49.1429V47.3333H132.619V36.4762C132.619 33.4724 130.194 31.0476 127.19 31.0476C124.512 31.0476 122.287 32.9838 121.852 35.5171V31.0476L118.233 31.5905L115.881 31.9524V33.7619L118.233 34.1238V47.3333H115.881V49.1429H124.114V47.3333H121.852V37.3448C121.852 35.3543 123.427 33.7619 125.417 33.7619C127.408 33.7619 129 35.3543 129 37.3448V47.3333H126.829V49.1429H135.062Z" fill="black"/>
<path d="M143.205 33.7619V47.3333H148V49.1428H141.395C140.4 49.1428 139.586 48.3286 139.586 47.3333V33.7619H136.202V31.9524H137.324C138.265 31.9524 139.061 31.3733 139.405 30.5771L139.586 30.1971L141.305 26.5238H143.205V31.9524H148V33.7619H143.205Z" fill="black"/>
<path d="M109.059 28.3333C110.308 28.3333 111.321 27.3206 111.321 26.0714C111.321 24.8222 110.308 23.8095 109.059 23.8095C107.81 23.8095 106.797 24.8222 106.797 26.0714C106.797 27.3206 107.81 28.3333 109.059 28.3333Z" fill="black"/>
<path d="M34 22C41.995 22 48.4762 28.4812 48.4762 36.4762C40.4812 36.4762 34 29.995 34 22Z" fill="black"/>
<path d="M62.9524 50.9524C54.9574 50.9524 48.4762 44.4712 48.4762 36.4762C56.4712 36.4762 62.9524 42.9574 62.9524 50.9524Z" fill="black"/>
<path d="M48.4762 36.4762C48.4762 32.4787 51.7168 29.2381 55.7143 29.2381C55.7143 33.2356 52.4737 36.4762 48.4762 36.4762Z" fill="black"/>
<path d="M48.4762 36.4762C48.4762 40.4737 45.2356 43.7143 41.2381 43.7143C41.2381 39.7168 44.4787 36.4762 48.4762 36.4762Z" fill="black"/>
</svg>
