<svg width="180" height="70" viewBox="0 0 180 70" fill="none" xmlns="http://www.w3.org/2000/svg">
<g clip-path="url(#clip0_1_97)">
<path d="M174 0.25H6C2.82436 0.25 0.25 2.82436 0.25 6V64C0.25 67.1756 2.82436 69.75 6 69.75H174C177.176 69.75 179.75 67.1756 179.75 64V6C179.75 2.82436 177.176 0.25 174 0.25Z" fill="white" stroke="#E8E8E8" stroke-width="0.5"/>
<path d="M75 51H19V66H75V51Z" fill="white"/>
<path fill-rule="evenodd" clip-rule="evenodd" d="M151.144 27.35L149.114 25.3201L149.114 25.3202L149.114 25.3201L147.084 27.35L147.084 27.3501L143.024 31.4097L145.054 33.4396L149.114 29.3799L153.174 33.4396L155.203 31.4097L151.144 27.3501L151.144 27.35Z" fill="#00FF85"/>
<path fill-rule="evenodd" clip-rule="evenodd" d="M45.3514 44.7616H41.6436V25H45.3514V44.7616ZM27.7078 28.0193V33.9058H32.1782C34.2704 33.9058 35.1974 32.6178 35.1974 30.9758C35.1974 29.2808 34.2704 28.0193 32.1782 28.0193H27.7078ZM32.3371 25.0001C36.7864 25.0001 39.0111 27.7712 39.0111 30.9758C39.0111 33.7831 37.1043 36.8985 32.3371 36.8985H27.7078V44.7616H24V25.0001H32.3371ZM48.0612 37.3725C48.0612 41.9543 51.0275 45 54.7353 45C57.0659 45 58.7344 43.8877 59.6083 42.6164V44.7616H63.3426V30.0894H59.6083V32.1817C58.7344 30.9634 57.1188 29.851 54.7617 29.851C51.0275 29.851 48.0612 32.7908 48.0612 37.3725ZM59.6083 37.4255C59.6083 40.2064 57.7545 41.7424 55.7152 41.7424C53.7289 41.7424 51.8485 40.1534 51.8485 37.3725C51.8485 34.5917 53.7289 33.1086 55.7152 33.1086C57.7545 33.1086 59.6083 34.6447 59.6083 37.4255ZM80.9475 44.7616H77.2398V36.6575C77.2398 34.3004 75.942 33.0292 73.9822 33.0292C71.9694 33.0292 70.6717 34.3004 70.6717 36.6575V44.7616H66.9639V30.0894H70.6717V31.9168C71.6251 30.6721 73.2142 29.8775 75.0945 29.8775C78.511 29.8775 80.9475 32.1022 80.9475 36.1543V44.7616ZM83.52 37.4255C83.52 42.0338 86.5392 45 90.7767 45C93.5356 45 95.7608 43.8229 97.0277 41.9015L93.8956 39.9443C93.4108 41.1801 92.2331 41.8219 90.7502 41.8219C88.6844 41.8219 87.3073 40.2858 87.3073 37.4255C87.3073 34.5652 88.6844 33.0027 90.7502 33.0027C92.2237 33.0027 93.4201 33.7337 93.8892 34.892L97.0497 32.9171C95.7867 30.9503 93.5517 29.851 90.7767 29.851C86.5392 29.851 83.52 32.8173 83.52 37.4255ZM102.838 44.7616H99.1298V25H102.838V36.3132L107.764 30.0894H112.584L106.122 37.452L112.637 44.7616H107.817L102.838 38.5114V44.7616ZM120.899 32.8967C122.806 32.8967 124.342 34.115 124.395 36.0483H117.43C117.721 34.0355 119.125 32.8967 120.899 32.8967ZM127.091 42.1748C125.815 43.8505 123.661 45 121.005 45C116.741 45 113.643 42.0338 113.643 37.4255C113.643 32.7908 116.662 29.851 121.005 29.851C125.243 29.851 128.235 32.7378 128.235 37.1077C128.235 37.5844 128.209 38.0611 128.13 38.5379H117.403C117.589 40.7096 119.072 41.9278 120.926 41.9278C122.447 41.9278 123.546 41.2 124.056 40.2783L127.091 42.1748ZM138.172 33.7707C135.974 33.7707 134.65 34.6182 134.65 37.452V44.7616H130.942V30.0894H134.65V32.367C135.577 30.8574 137.113 29.8775 139.152 29.8775V33.7707H138.172Z" fill="black"/>
</g>
<defs>
<clipPath id="clip0_1_97">
<rect width="180" height="70" fill="white"/>
</clipPath>
</defs>
</svg>
