<svg width="274" height="151" viewBox="0 0 274 151" fill="none" xmlns="http://www.w3.org/2000/svg">
<g clip-path="url(#clip0_10_185)">
<path d="M105.026 50.6631H109.842V63.2866C109.842 64.0374 109.962 64.7481 110.193 65.4188C110.433 66.0795 110.763 66.6702 111.204 67.1607C111.644 67.6612 112.175 68.0516 112.796 68.3419C113.417 68.6323 114.117 68.7724 114.898 68.7724C115.679 68.7724 116.35 68.6323 116.971 68.3419C117.592 68.0516 118.112 67.6612 118.553 67.1607C118.983 66.6602 119.324 66.0795 119.554 65.4188C119.794 64.7581 119.904 64.0474 119.904 63.2866V50.6631H122.948V63.2866C122.948 64.2976 122.778 65.2587 122.437 66.1596C122.097 67.0606 121.556 67.8514 120.826 68.5221C120.095 69.1929 119.154 69.7334 118.002 70.1238C116.851 70.5243 115.469 70.7145 113.867 70.7145C112.425 70.7145 111.154 70.5143 110.053 70.1238C108.951 69.7234 108.02 69.1929 107.279 68.5121C106.538 67.8314 105.978 67.0406 105.597 66.1296C105.217 65.2186 105.026 64.2576 105.026 63.2365V50.6631Z" fill="#201F1B"/>
<path d="M144.614 70.7245H139.798V58.101C139.798 57.3502 139.678 56.6395 139.448 55.9687C139.208 55.308 138.877 54.7174 138.437 54.2269C137.996 53.7264 137.466 53.3359 136.845 53.0456C136.224 52.7553 135.523 52.6152 134.742 52.6152C133.961 52.6152 133.291 52.7553 132.67 53.0456C132.049 53.3359 131.528 53.7264 131.088 54.2269C130.657 54.7274 130.317 55.308 130.087 55.9687C129.846 56.6295 129.736 57.3402 129.736 58.101V70.7245H126.693V58.101C126.693 57.0899 126.863 56.1289 127.203 55.228C127.544 54.327 128.084 53.5361 128.815 52.8654C129.546 52.1947 130.487 51.6541 131.639 51.2637C132.79 50.8633 134.172 50.6731 135.774 50.6731C137.215 50.6731 138.487 50.8733 139.588 51.2637C140.689 51.6642 141.621 52.1947 142.361 52.8754C143.102 53.5562 143.663 54.347 144.043 55.258C144.424 56.169 144.614 57.13 144.614 58.1511V70.7245Z" fill="#201F1B"/>
<path d="M110.373 90.9461C110.373 92.2174 110.563 93.3386 110.954 94.3097C111.334 95.2807 111.845 96.1016 112.485 96.7523C113.116 97.413 113.857 97.9135 114.678 98.2539C115.509 98.5942 116.37 98.7644 117.261 98.7644C117.942 98.7644 118.583 98.6443 119.174 98.414C119.764 98.1738 120.315 97.8534 120.836 97.453C121.346 97.0526 121.837 96.5821 122.287 96.0515C122.738 95.5209 123.168 94.9603 123.589 94.3797L125.591 95.8513C125.161 96.542 124.64 97.2127 124.029 97.8534C123.419 98.4941 122.728 99.0647 121.967 99.5552C121.206 100.046 120.375 100.436 119.484 100.737C118.593 101.037 117.642 101.177 116.64 101.177C114.958 101.177 113.407 100.927 111.985 100.436C110.563 99.9457 109.342 99.2549 108.31 98.354C107.279 97.463 106.478 96.3819 105.898 95.1305C105.317 93.8792 105.026 92.4777 105.026 90.9361C105.026 89.3944 105.297 88.073 105.847 86.8217C106.398 85.5703 107.169 84.4892 108.16 83.5782C109.151 82.6672 110.353 81.9565 111.745 81.4459C113.136 80.9354 114.678 80.6851 116.36 80.6851C117.481 80.6851 118.513 80.8153 119.454 81.0855C120.385 81.3458 121.236 81.7162 122.007 82.1867C122.768 82.6572 123.459 83.2078 124.059 83.8585C124.66 84.5092 125.191 85.22 125.651 86.0008L123.629 87.4123C123.218 86.8217 122.768 86.2711 122.277 85.7505C121.787 85.23 121.276 84.7795 120.725 84.3891C120.175 83.9987 119.604 83.6883 118.993 83.4681C118.383 83.2378 117.752 83.1277 117.101 83.1277C116.21 83.1277 115.349 83.2979 114.538 83.6283C113.727 83.9686 113.006 84.4591 112.395 85.1199C111.775 85.7806 111.284 86.5914 110.924 87.5625C110.553 88.5335 110.373 89.6547 110.373 90.926V90.9461Z" fill="#201F1B"/>
<path d="M140.319 101.187C138.737 101.187 137.265 100.937 135.904 100.426C134.532 99.9156 133.351 99.2049 132.349 98.2839C131.348 97.3629 130.557 96.2717 129.987 95.0104C129.416 93.749 129.126 92.3576 129.126 90.846C129.126 89.3343 129.416 88.0029 129.987 86.7716C130.557 85.5303 131.348 84.4691 132.349 83.5882C133.351 82.7073 134.532 82.0165 135.904 81.526C137.275 81.0355 138.747 80.7852 140.319 80.7852C141.891 80.7852 143.373 81.0355 144.734 81.526C146.096 82.0265 147.277 82.7173 148.289 83.5982C149.29 84.4792 150.091 85.5403 150.661 86.7716C151.232 88.0029 151.533 89.3443 151.533 90.8059C151.533 91.847 151.402 92.8281 151.142 93.749C150.882 94.67 150.511 95.5109 150.031 96.2817C149.55 97.0526 148.969 97.7433 148.299 98.3439C147.628 98.9546 146.867 99.4651 146.036 99.8856C145.205 100.306 144.304 100.636 143.343 100.857C142.381 101.087 141.37 101.197 140.329 101.197L140.319 101.187ZM140.319 99.5452C141.27 99.5452 142.111 99.325 142.842 98.8845C143.573 98.4441 144.184 97.8434 144.674 97.0726C145.165 96.3018 145.535 95.3908 145.796 94.3197C146.046 93.2585 146.176 92.0973 146.176 90.8359C146.176 89.5746 146.046 88.4634 145.796 87.4323C145.545 86.4012 145.165 85.5203 144.674 84.7795C144.184 84.0387 143.573 83.4581 142.842 83.0476C142.111 82.6372 141.27 82.427 140.319 82.427C139.368 82.427 138.507 82.6372 137.776 83.0476C137.045 83.4581 136.434 84.0387 135.944 84.7795C135.453 85.5203 135.083 86.4112 134.832 87.4323C134.582 88.4634 134.462 89.5946 134.462 90.8359C134.462 92.0773 134.582 93.2585 134.832 94.3197C135.083 95.3808 135.453 96.3018 135.944 97.0726C136.434 97.8434 137.045 98.4441 137.776 98.8845C138.507 99.325 139.358 99.5452 140.319 99.5452Z" fill="#201F1B"/>
<path d="M155.828 81.1757H160.503L167.271 94.5499L173.939 81.1757H178.515V100.757H173.719V87.9929L167.322 100.757H165.469L158.851 87.8528V100.757H155.808V81.1757H155.828Z" fill="#201F1B"/>
<path d="M183.451 81.1757H188.127L194.895 94.5499L201.563 81.1757H206.138V100.757H201.342V87.9929L194.945 100.757H193.093L186.475 87.8528V100.757H183.431V81.1757H183.451Z" fill="#201F1B"/>
<path d="M221.697 101.187C220.115 101.187 218.643 100.937 217.282 100.426C215.91 99.9156 214.729 99.2049 213.727 98.2839C212.726 97.3629 211.935 96.2717 211.365 95.0104C210.794 93.749 210.504 92.3576 210.504 90.846C210.504 89.3343 210.794 88.0029 211.365 86.7716C211.935 85.5303 212.726 84.4691 213.727 83.5882C214.729 82.7073 215.91 82.0165 217.282 81.526C218.653 81.0355 220.125 80.7852 221.697 80.7852C223.269 80.7852 224.751 81.0355 226.112 81.526C227.474 82.0265 228.655 82.7173 229.667 83.5982C230.668 84.4792 231.469 85.5403 232.039 86.7716C232.61 88.0029 232.911 89.3443 232.911 90.8059C232.911 91.847 232.78 92.8281 232.52 93.749C232.26 94.67 231.889 95.5109 231.409 96.2817C230.928 97.0526 230.347 97.7433 229.677 98.3439C229.006 98.9546 228.245 99.4651 227.414 99.8856C226.583 100.306 225.682 100.636 224.721 100.857C223.759 101.087 222.748 101.197 221.707 101.197L221.697 101.187ZM221.697 99.5452C222.648 99.5452 223.489 99.325 224.22 98.8845C224.951 98.4441 225.562 97.8434 226.052 97.0726C226.543 96.3018 226.913 95.3908 227.174 94.3197C227.424 93.2585 227.554 92.0973 227.554 90.8359C227.554 89.5746 227.424 88.4634 227.174 87.4323C226.923 86.4012 226.543 85.5203 226.052 84.7795C225.562 84.0387 224.951 83.4581 224.22 83.0476C223.489 82.6372 222.648 82.427 221.697 82.427C220.746 82.427 219.885 82.6372 219.154 83.0476C218.423 83.4581 217.812 84.0387 217.322 84.7795C216.831 85.5203 216.461 86.4112 216.21 87.4323C215.96 88.4634 215.84 89.5946 215.84 90.8359C215.84 92.0773 215.96 93.2585 216.21 94.3197C216.461 95.3808 216.831 96.3018 217.322 97.0726C217.812 97.8434 218.423 98.4441 219.154 98.8845C219.885 99.325 220.736 99.5452 221.697 99.5452Z" fill="#201F1B"/>
<path d="M237.206 81.1757H240.279L251.443 93.6189V81.1757H254.446V101.047H252.384L240.249 87.3022V100.757H237.206V81.1757Z" fill="#201F1B"/>
<path d="M266.321 101.037C265.149 101.037 264.118 100.897 263.237 100.626C262.356 100.356 261.605 99.9757 260.994 99.4952C260.374 99.0147 259.883 98.434 259.523 97.7733C259.152 97.1026 258.902 96.3718 258.772 95.571H262.106C262.226 96.0615 262.386 96.522 262.606 96.9525C262.827 97.3729 263.107 97.7433 263.447 98.0637C263.788 98.374 264.198 98.6242 264.659 98.8044C265.129 98.9846 265.67 99.0747 266.281 99.0747C266.681 99.0747 267.092 99.0347 267.482 98.9446C267.883 98.8545 268.243 98.7143 268.553 98.5141C268.874 98.3139 269.124 98.0637 269.314 97.7533C269.505 97.443 269.605 97.0526 269.605 96.5921C269.605 96.0115 269.455 95.5009 269.154 95.0504C268.854 94.6 268.463 94.1895 267.973 93.8191C267.482 93.4487 266.922 93.1084 266.301 92.788C265.67 92.4677 265.039 92.1473 264.378 91.827C263.728 91.5067 263.087 91.1663 262.456 90.8059C261.825 90.4455 261.275 90.0551 260.784 89.6146C260.294 89.1742 259.903 88.6836 259.603 88.123C259.302 87.5725 259.152 86.9318 259.152 86.221C259.152 85.4402 259.322 84.7194 259.663 84.0587C260.003 83.398 260.494 82.8274 261.145 82.3369C261.785 81.8464 262.576 81.4659 263.517 81.1957C264.449 80.9254 265.52 80.7852 266.711 80.7852C267.692 80.7852 268.583 80.9154 269.384 81.1856C270.185 81.4559 270.886 81.8263 271.497 82.3068C272.108 82.7874 272.618 83.3379 273.039 83.9786C273.449 84.6193 273.77 85.3 273.99 86.0408H270.976C270.806 85.5803 270.606 85.1399 270.366 84.7094C270.135 84.289 269.855 83.9186 269.515 83.5982C269.174 83.2779 268.764 83.0276 268.283 82.8374C267.803 82.6472 267.232 82.5571 266.561 82.5571C265.93 82.5571 265.41 82.6372 264.979 82.8074C264.549 82.9675 264.208 83.1778 263.948 83.438C263.688 83.6883 263.497 83.9786 263.387 84.289C263.267 84.5993 263.217 84.9096 263.217 85.2099C263.217 85.7305 263.367 86.201 263.678 86.6214C263.988 87.0419 264.388 87.4423 264.899 87.8027C265.4 88.1731 265.98 88.5135 266.621 88.8538C267.262 89.1842 267.923 89.5245 268.593 89.8549C269.264 90.1953 269.915 90.5456 270.566 90.916C271.207 91.2864 271.787 91.6969 272.288 92.1373C272.789 92.5778 273.199 93.0683 273.509 93.6089C273.82 94.1495 273.97 94.7501 273.97 95.4308C273.97 96.2317 273.81 96.9725 273.479 97.6532C273.149 98.3339 272.668 98.9346 272.018 99.4351C271.377 99.9357 270.576 100.336 269.615 100.626C268.654 100.917 267.552 101.057 266.301 101.057L266.321 101.037Z" fill="#201F1B"/>
<g clip-path="url(#clip1_10_185)">
<path d="M11.67 98.87V51.18V38.53C7.18 42.06 3.32 46.34 0.26 51.18H0V98.87C0 112.22 9.23 123.41 21.66 126.41V115.67C15.71 112.42 11.68 106.12 11.66 98.87H11.67Z" fill="#007000"/>
<path d="M28.33 149.8C30.52 150.22 32.75 150.54 35 150.77V100.09V52.8201C35.02 42.2501 43.59 33.6901 54.17 33.6901C55.02 33.6901 55.85 33.7501 56.67 33.8501V24.4901C41.02 24.4901 28.34 37.1801 28.34 52.8201V100.09V149.8H28.33Z" fill="#00939F"/>
<path d="M73.34 52.82V100.51V113.16C77.83 109.63 81.69 105.35 84.75 100.51H85.01V52.82C85.01 39.47 75.78 28.28 63.35 25.28V36.02C69.3 39.27 73.33 45.57 73.35 52.82H73.34Z" fill="#00939F"/>
<path d="M50 0.920044V51.6V98.87C49.98 108 43.57 115.63 35.01 117.53V126.4C47.44 123.4 56.67 112.21 56.67 98.87V51.6V1.89004C54.48 1.47004 52.25 1.15004 50 0.920044Z" fill="#007000"/>
</g>
</g>
<defs>
<clipPath id="clip0_10_185">
<rect width="274" height="150" fill="white" transform="translate(0 0.920044)"/>
</clipPath>
<clipPath id="clip1_10_185">
<rect width="85" height="149.84" fill="white" transform="translate(0 0.920044)"/>
</clipPath>
</defs>
</svg>
