<svg width="180" height="70" viewBox="0 0 180 70" fill="none" xmlns="http://www.w3.org/2000/svg">
<g clip-path="url(#clip0_37_15823)">
<path d="M174 0.25H6C2.82436 0.25 0.25 2.82436 0.25 6V64C0.25 67.1756 2.82436 69.75 6 69.75H174C177.176 69.75 179.75 67.1756 179.75 64V6C179.75 2.82436 177.176 0.25 174 0.25Z" fill="white" stroke="#E8E8E8" stroke-width="0.5"/>
<g clip-path="url(#clip1_37_15823)">
<mask id="mask0_37_15823" style="mask-type:luminance" maskUnits="userSpaceOnUse" x="47" y="9" width="94" height="53">
<path d="M141 9.32294H47V61.9719H141V9.32294Z" fill="white"/>
</mask>
<g mask="url(#mask0_37_15823)">
<path d="M83.0308 26.7824H84.683V31.2132C84.683 31.4767 84.7241 31.7262 84.8034 31.9616C84.8857 32.1935 84.9989 32.4008 85.1502 32.573C85.3012 32.7486 85.4833 32.8857 85.6964 32.9876C85.9094 33.0895 86.1496 33.1387 86.4175 33.1387C86.6854 33.1387 86.9156 33.0895 87.1287 32.9876C87.3417 32.8857 87.5201 32.7486 87.6714 32.573C87.8189 32.3973 87.9359 32.1935 88.0148 31.9616C88.0972 31.7297 88.1349 31.4802 88.1349 31.2132V26.7824H89.1792V31.2132C89.1792 31.568 89.1209 31.9054 89.0039 32.2216C88.8872 32.5378 88.7016 32.8154 88.4512 33.0508C88.2004 33.2862 87.8776 33.476 87.4824 33.613C87.0875 33.7536 86.6134 33.8203 86.0638 33.8203C85.5691 33.8203 85.1331 33.75 84.7554 33.613C84.3773 33.4724 84.0579 33.2862 83.8037 33.0473C83.5495 32.8084 83.3574 32.5308 83.2267 32.211C83.0963 31.8913 83.0308 31.554 83.0308 31.1956V26.7824Z" fill="#201F1B"/>
<path d="M96.6122 33.8239H94.96V29.3931C94.96 29.1296 94.9188 28.8801 94.8399 28.6447C94.7576 28.4128 94.644 28.2055 94.4931 28.0333C94.3418 27.8576 94.16 27.7206 93.9469 27.6187C93.7339 27.5168 93.4934 27.4676 93.2254 27.4676C92.9575 27.4676 92.7277 27.5168 92.5146 27.6187C92.3016 27.7206 92.1228 27.8576 91.9719 28.0333C91.824 28.209 91.7074 28.4128 91.6285 28.6447C91.5458 28.8766 91.5081 29.1261 91.5081 29.3931V33.8239H90.4641V29.3931C90.4641 29.0382 90.5224 28.7009 90.6391 28.3847C90.7561 28.0684 90.9413 27.7908 91.1921 27.5554C91.4429 27.32 91.7657 27.1303 92.1609 26.9932C92.5558 26.8527 93.0299 26.7859 93.5795 26.7859C94.0738 26.7859 94.5102 26.8562 94.8879 26.9932C95.2657 27.1338 95.5854 27.32 95.8393 27.5589C96.0935 27.7979 96.2859 28.0755 96.4163 28.3952C96.547 28.715 96.6122 29.0523 96.6122 29.4107V33.8239Z" fill="#201F1B"/>
<path d="M84.8651 40.9215C84.8651 41.3677 84.9303 41.7612 85.0645 42.1021C85.1948 42.4429 85.3701 42.731 85.5897 42.9594C85.8062 43.1913 86.0604 43.367 86.342 43.4865C86.6271 43.6059 86.9225 43.6657 87.2282 43.6657C87.4618 43.6657 87.6817 43.6235 87.8845 43.5427C88.0869 43.4584 88.2759 43.3459 88.4546 43.2054C88.6296 43.0648 88.798 42.8997 88.9524 42.7135C89.1071 42.5272 89.2547 42.3304 89.3991 42.1267L90.0859 42.6432C89.9384 42.8856 89.7597 43.121 89.55 43.3459C89.3408 43.5708 89.1037 43.7711 88.8426 43.9432C88.5816 44.1155 88.2965 44.2524 87.9908 44.358C87.6851 44.4633 87.3589 44.5125 87.0151 44.5125C86.4381 44.5125 85.906 44.4247 85.4182 44.2524C84.9303 44.0803 84.5114 43.8378 84.1574 43.5216C83.8037 43.2089 83.5289 42.8294 83.3299 42.3902C83.1306 41.951 83.0308 41.4591 83.0308 40.918C83.0308 40.3769 83.1237 39.9131 83.3124 39.4739C83.5014 39.0346 83.766 38.6552 84.1059 38.3354C84.4459 38.0157 84.8583 37.7662 85.3358 37.587C85.813 37.4078 86.342 37.3199 86.9191 37.3199C87.3036 37.3199 87.6577 37.3656 87.9805 37.4605C88.2999 37.5518 88.5919 37.6819 88.8564 37.847C89.1174 38.0121 89.3545 38.2054 89.5603 38.4338C89.7665 38.6622 89.9487 38.9117 90.1065 39.1857L89.4128 39.6812C89.2718 39.4739 89.1174 39.2806 88.949 39.0979C88.7809 38.9152 88.6056 38.7571 88.4165 38.62C88.2279 38.483 88.032 38.3741 87.8224 38.2968C87.6131 38.2159 87.3966 38.1773 87.1733 38.1773C86.8676 38.1773 86.5722 38.237 86.294 38.353C86.0158 38.4724 85.7684 38.6446 85.5588 38.8765C85.3461 39.1084 85.1777 39.393 85.0542 39.7339C84.9269 40.0747 84.8651 40.4682 84.8651 40.9144V40.9215Z" fill="#201F1B"/>
<path d="M95.1388 44.516C94.596 44.516 94.091 44.4283 93.6241 44.2489C93.1534 44.0697 92.7483 43.8203 92.4045 43.497C92.0611 43.1738 91.7898 42.7908 91.5942 42.3481C91.3983 41.9053 91.2988 41.4169 91.2988 40.8864C91.2988 40.3558 91.3983 39.8885 91.5942 39.4563C91.7898 39.0206 92.0611 38.6481 92.4045 38.3389C92.7483 38.0297 93.1534 37.7873 93.6241 37.6151C94.0945 37.443 94.5995 37.3551 95.1388 37.3551C95.6781 37.3551 96.1865 37.443 96.6534 37.6151C97.1206 37.7908 97.5258 38.0333 97.873 38.3424C98.2164 38.6517 98.4912 39.0241 98.6867 39.4563C98.8826 39.8885 98.9859 40.3593 98.9859 40.8723C98.9859 41.2377 98.941 41.5821 98.8518 41.9053C98.7626 42.2286 98.6353 42.5237 98.4706 42.7943C98.3056 43.0649 98.1063 43.3073 97.8764 43.5181C97.6462 43.7324 97.3852 43.9116 97.1001 44.0592C96.815 44.2068 96.5059 44.3226 96.1762 44.4002C95.8462 44.4809 95.4993 44.5195 95.1422 44.5195L95.1388 44.516ZM95.1388 43.9397C95.465 43.9397 95.7535 43.8624 96.0043 43.7078C96.2551 43.5533 96.4647 43.3424 96.6328 43.0719C96.8013 42.8013 96.9282 42.4816 97.0177 42.1056C97.1035 41.7331 97.1481 41.3256 97.1481 40.8828C97.1481 40.4401 97.1035 40.0501 97.0177 39.6882C96.9316 39.3263 96.8013 39.0171 96.6328 38.7571C96.4647 38.4971 96.2551 38.2933 96.0043 38.1492C95.7535 38.0051 95.465 37.9314 95.1388 37.9314C94.8125 37.9314 94.5171 38.0051 94.2663 38.1492C94.0156 38.2933 93.8059 38.4971 93.6378 38.7571C93.4694 39.0171 93.3425 39.3298 93.2564 39.6882C93.1706 40.0501 93.1294 40.4471 93.1294 40.8828C93.1294 41.3186 93.1706 41.7331 93.2564 42.1056C93.3425 42.4781 93.4694 42.8013 93.6378 43.0719C93.8059 43.3424 94.0156 43.5533 94.2663 43.7078C94.5171 43.8624 94.8091 43.9397 95.1388 43.9397Z" fill="#201F1B"/>
<path d="M100.459 37.4921H102.063L104.385 42.1864L106.673 37.4921H108.242V44.365H106.597V39.8849L104.402 44.365H103.767L101.496 39.8357V44.365H100.452V37.4921H100.459Z" fill="#201F1B"/>
<path d="M109.936 37.4921H111.54L113.862 42.1864L116.149 37.4921H117.719V44.365H116.074V39.8849L113.879 44.365H113.244L110.973 39.8357V44.365H109.929V37.4921H109.936Z" fill="#201F1B"/>
<path d="M123.057 44.516C122.514 44.516 122.009 44.4283 121.542 44.2489C121.071 44.0697 120.666 43.8203 120.323 43.497C119.979 43.1738 119.708 42.7908 119.512 42.3481C119.316 41.9053 119.217 41.4169 119.217 40.8864C119.217 40.3558 119.316 39.8885 119.512 39.4563C119.708 39.0206 119.979 38.6481 120.323 38.3389C120.666 38.0297 121.071 37.7873 121.542 37.6151C122.012 37.443 122.517 37.3551 123.057 37.3551C123.596 37.3551 124.104 37.443 124.571 37.6151C125.039 37.7908 125.444 38.0333 125.791 38.3424C126.134 38.6517 126.409 39.0241 126.605 39.4563C126.801 39.8885 126.904 40.3593 126.904 40.8723C126.904 41.2377 126.859 41.5821 126.77 41.9053C126.681 42.2286 126.553 42.5237 126.389 42.7943C126.224 43.0649 126.024 43.3073 125.794 43.5181C125.564 43.7324 125.303 43.9116 125.018 44.0592C124.733 44.2068 124.424 44.3226 124.094 44.4002C123.764 44.4809 123.417 44.5195 123.06 44.5195L123.057 44.516ZM123.057 43.9397C123.383 43.9397 123.672 43.8624 123.922 43.7078C124.173 43.5533 124.383 43.3424 124.551 43.0719C124.719 42.8013 124.846 42.4816 124.936 42.1056C125.021 41.7331 125.066 41.3256 125.066 40.8828C125.066 40.4401 125.021 40.0501 124.936 39.6882C124.85 39.3263 124.719 39.0171 124.551 38.7571C124.383 38.4971 124.173 38.2933 123.922 38.1492C123.672 38.0051 123.383 37.9314 123.057 37.9314C122.73 37.9314 122.435 38.0051 122.184 38.1492C121.934 38.2933 121.724 38.4971 121.556 38.7571C121.387 39.0171 121.26 39.3298 121.174 39.6882C121.089 40.0501 121.047 40.4471 121.047 40.8828C121.047 41.3186 121.089 41.7331 121.174 42.1056C121.26 42.4781 121.387 42.8013 121.556 43.0719C121.724 43.3424 121.934 43.5533 122.184 43.7078C122.435 43.8624 122.727 43.9397 123.057 43.9397Z" fill="#201F1B"/>
<path d="M128.377 37.4921H129.431L133.261 41.8596V37.4921H134.292V44.4668H133.584L129.421 39.6425V44.365H128.377V37.4921Z" fill="#201F1B"/>
<path d="M138.366 44.4634C137.964 44.4634 137.61 44.4142 137.308 44.3191C137.005 44.2243 136.748 44.0908 136.538 43.9222C136.325 43.7535 136.157 43.5497 136.034 43.3178C135.906 43.0824 135.82 42.8259 135.776 42.5448H136.92C136.961 42.717 137.016 42.8786 137.091 43.0297C137.167 43.1773 137.263 43.3073 137.38 43.4197C137.497 43.5287 137.637 43.6165 137.796 43.6797C137.957 43.743 138.142 43.7746 138.352 43.7746C138.489 43.7746 138.63 43.7606 138.764 43.7289C138.902 43.6973 139.025 43.6481 139.131 43.5778C139.242 43.5076 139.327 43.4197 139.392 43.3108C139.458 43.2019 139.492 43.0649 139.492 42.9032C139.492 42.6994 139.441 42.5202 139.338 42.3621C139.235 42.204 139.101 42.0599 138.932 41.9299C138.764 41.7999 138.572 41.6805 138.359 41.568C138.142 41.4556 137.926 41.3431 137.699 41.2307C137.476 41.1183 137.256 40.9988 137.04 40.8723C136.823 40.7458 136.635 40.6088 136.466 40.4542C136.298 40.2996 136.164 40.1274 136.061 39.9306C135.958 39.7374 135.906 39.5125 135.906 39.263C135.906 38.989 135.965 38.736 136.082 38.5041C136.198 38.2722 136.367 38.0719 136.59 37.8997C136.81 37.7276 137.081 37.594 137.404 37.4992C137.723 37.4043 138.091 37.3551 138.499 37.3551C138.836 37.3551 139.142 37.4008 139.416 37.4956C139.691 37.5905 139.932 37.7205 140.141 37.8892C140.351 38.0579 140.526 38.2511 140.67 38.476C140.811 38.7008 140.921 38.9398 140.997 39.1998H139.963C139.904 39.0382 139.836 38.8836 139.753 38.7325C139.674 38.5849 139.578 38.4549 139.461 38.3424C139.344 38.23 139.204 38.1422 139.039 38.0754C138.874 38.0087 138.678 37.977 138.448 37.977C138.232 37.977 138.053 38.0051 137.905 38.0649C137.758 38.1211 137.641 38.1949 137.552 38.2862C137.462 38.3741 137.397 38.476 137.359 38.5849C137.318 38.6938 137.301 38.8027 137.301 38.9081C137.301 39.0909 137.352 39.256 137.459 39.4036C137.565 39.5512 137.703 39.6917 137.878 39.8182C138.05 39.9482 138.249 40.0677 138.469 40.1871C138.689 40.3031 138.915 40.4225 139.145 40.5385C139.375 40.658 139.599 40.7809 139.822 40.9109C140.042 41.041 140.241 41.185 140.413 41.3396C140.585 41.4942 140.725 41.6664 140.832 41.8561C140.938 42.0459 140.99 42.2567 140.99 42.4956C140.99 42.7767 140.935 43.0367 140.821 43.2757C140.708 43.5146 140.543 43.7254 140.32 43.9011C140.1 44.0768 139.825 44.2173 139.496 44.3191C139.166 44.4212 138.788 44.4704 138.359 44.4704L138.366 44.4634Z" fill="#201F1B"/>
<mask id="mask1_37_15823" style="mask-type:luminance" maskUnits="userSpaceOnUse" x="47" y="9" width="30" height="53">
<path d="M76.1606 9.32294H47V61.9158H76.1606V9.32294Z" fill="white"/>
</mask>
<g mask="url(#mask1_37_15823)">
<path d="M51.0036 43.7027V26.9639V22.5238C49.4632 23.7628 48.139 25.2651 47.0892 26.9639H47V43.7027C47 48.3885 50.1665 52.3161 54.4308 53.3691V49.5994C52.3896 48.4587 51.007 46.2474 51.0001 43.7027H51.0036Z" fill="#007000"/>
<path d="M56.719 61.5788C57.4703 61.7262 58.2353 61.8386 59.0072 61.9193V44.1309V27.5395C59.0141 23.8295 61.9542 20.825 65.5838 20.825C65.8754 20.825 66.1602 20.8461 66.4415 20.8812V17.5959C61.0725 17.5959 56.7224 22.05 56.7224 27.5395V44.1309V61.5788H56.719Z" fill="#00939F"/>
<path d="M72.1604 27.5395V44.2783V48.7184C73.7007 47.4794 75.025 45.9771 76.0748 44.2783H76.164V27.5395C76.164 22.8537 72.9975 18.9261 68.7332 17.8731V21.6428C70.7744 22.7835 72.1569 24.9948 72.1638 27.5395H72.1604Z" fill="#00939F"/>
<path d="M64.1533 9.32294V27.1113V43.7027C64.1464 46.9073 61.9474 49.5854 59.0107 50.2523V53.3656C63.275 52.3126 66.4415 48.385 66.4415 43.7027V27.1113V9.6634C65.6902 9.51598 64.9252 9.40366 64.1533 9.32294Z" fill="#007000"/>
</g>
</g>
</g>
</g>
<defs>
<clipPath id="clip0_37_15823">
<rect width="180" height="70" fill="white"/>
</clipPath>
<clipPath id="clip1_37_15823">
<rect width="94" height="53" fill="white" transform="translate(47 9)"/>
</clipPath>
</defs>
</svg>
