<svg width="40" height="21" viewBox="0 0 40 21" fill="none" xmlns="http://www.w3.org/2000/svg">
    <path
        d="M19.651 12.9986L20.0243 12.5794L20.3977 12.9986L24.4479 17.5454C27.8923 21.412 33.45 21.412 36.8943 17.5454C40.3686 13.6452 40.3686 7.30023 36.8943 3.39996C33.45 -0.466652 27.8922 -0.466652 24.4479 3.39996L20.349 8.00143L19.9757 8.42056L19.6023 8.00143L15.5521 3.45457C12.1077 -0.412036 6.55003 -0.412036 3.10572 3.45457C-0.368572 7.35485 -0.368576 13.6998 3.10572 17.6C6.55003 21.4667 12.1077 21.4667 15.5521 17.6L19.651 12.9986ZM22.1073 10.8053L21.811 10.4727L22.1073 10.1401L26.2025 5.54277C28.6631 2.78049 32.6791 2.78049 35.1397 5.54277C37.5703 8.27138 37.5703 12.674 35.1397 15.4026C32.6791 18.1649 28.6631 18.1649 26.2025 15.4026L22.1073 10.8053ZM17.8927 10.1947L18.189 10.5273L17.8927 10.8599L13.7975 15.4572C11.3369 18.2195 7.32088 18.2195 4.8603 15.4572C2.4297 12.7286 2.4297 8.32599 4.8603 5.59738C7.32088 2.83511 11.3369 2.83511 13.7975 5.59738L17.8927 10.1947Z"
        fill="black" stroke="white" />
</svg>